<svg xmlns="http://www.w3.org/2000/svg" xmlns:xlink="http://www.w3.org/1999/xlink" width="500" zoomAndPan="magnify" viewBox="0 0 375 374.999991" height="500" preserveAspectRatio="xMidYMid meet" version="1.0"><defs><g/><clipPath id="d042687d36"><path d="M 20 120.007812 L 110.25 120.007812 L 110.25 255 L 20 255 Z M 20 120.007812 " clip-rule="nonzero"/></clipPath></defs><g clip-path="url(#d042687d36)"><path fill="#000000" d="M 91.277344 121.269531 C 91.277344 122.324219 90.789062 125.332031 91.605469 125.785156 C 92.101562 126.066406 93.351562 125.5 93.820312 125.324219 C 95.253906 124.785156 94.410156 125.644531 95.007812 125.984375 C 95.222656 126.105469 94.9375 126.527344 95.578125 126.636719 C 96.019531 126.707031 96.605469 126.4375 97.007812 126.558594 C 98.976562 127.144531 97.75 128.890625 100.253906 128.75 C 101.789062 128.664062 101.585938 130.367188 102.671875 131.09375 C 103.484375 131.640625 104.726562 131.410156 105.109375 132.460938 C 105.199219 132.714844 103.671875 132.949219 104.789062 133.550781 C 105.417969 133.890625 106.050781 133.816406 106.558594 134.332031 C 107.3125 135.101562 105.820312 135.292969 107.457031 135.589844 C 108.210938 135.722656 109.144531 135.285156 109.949219 135.367188 C 110.222656 135.398438 109.558594 145.117188 109.5 146.382812 C 108.796875 161.480469 108.679688 176.625 108.5 191.734375 C 108.410156 199.359375 108.355469 206.984375 108.308594 214.613281 C 108.285156 218.757812 108.269531 222.902344 108.269531 227.050781 C 108.269531 228.683594 108.273438 230.316406 108.28125 231.945312 C 108.285156 233.308594 108.753906 235.921875 108.203125 237.199219 C 107.402344 239.066406 104.4375 238.972656 102.695312 239.292969 C 99.246094 239.925781 95.808594 240.644531 92.375 241.363281 C 85.46875 242.804688 78.589844 244.386719 71.648438 245.660156 C 64.410156 246.988281 57.242188 248.730469 50.011719 250.085938 C 46.453125 250.75 42.84375 251.097656 39.261719 251.570312 C 37.617188 251.785156 35.984375 252.082031 34.355469 252.375 C 33.964844 252.445312 33.230469 253.605469 32.609375 253.851562 C 29.722656 255.003906 27.140625 253 25.035156 251.417969 C 23.816406 250.5 22.546875 249.5 21.820312 248.125 C 21.113281 246.792969 21.617188 244.472656 21.609375 242.933594 C 21.566406 235.1875 21.519531 227.4375 21.480469 219.6875 C 21.398438 203.664062 21.324219 187.640625 21.242188 171.617188 C 21.203125 164.585938 21.828125 157.144531 21.0625 150.148438 C 20.757812 147.382812 18.742188 143.011719 22.234375 141.585938 C 23.058594 141.246094 23.910156 140.816406 24.785156 140.632812 C 25.964844 140.382812 26.953125 141.074219 28.21875 140.941406 C 35.074219 140.230469 42.179688 136.761719 48.671875 134.578125 C 55.859375 132.15625 63.046875 129.722656 70.261719 127.367188 C 73.980469 126.15625 77.695312 124.941406 81.417969 123.746094 C 83.253906 123.15625 90.03125 120.023438 91.277344 121.269531 " fill-opacity="1" fill-rule="nonzero"/></g><path fill="#ffffff" d="M 90.199219 123.035156 C 77.167969 127.929688 63.757812 132.167969 50.855469 137.285156 C 45.09375 139.570312 39.085938 141.273438 33.269531 143.453125 C 31.960938 143.941406 30.523438 144.667969 29.296875 144.597656 C 28.253906 144.539062 27.492188 143.96875 26.332031 144.199219 C 25.34375 144.398438 25.09375 144.816406 25.804688 145.632812 C 26.382812 146.296875 26.59375 145.453125 26.792969 145.566406 L 26.792969 145.214844 C 27.578125 146.847656 29.21875 147.660156 30.898438 148.078125 C 28.527344 147.296875 24.816406 146.050781 24.140625 143.261719 C 23.578125 140.960938 26.136719 142.402344 26.65625 142.304688 C 33.105469 141.085938 38.867188 138.566406 45.046875 136.511719 C 52.167969 134.144531 59.273438 131.734375 66.414062 129.417969 C 73.074219 127.257812 79.949219 125.769531 86.535156 123.449219 C 87.4375 123.132812 90.496094 121.257812 90.199219 123.035156 " fill-opacity="1" fill-rule="nonzero"/><path fill="#ffffff" d="M 90.375 126.09375 C 81.132812 129.90625 71.660156 132.984375 62.167969 136.089844 C 57.640625 137.570312 52.984375 138.609375 48.460938 140.148438 C 44.554688 141.480469 38.792969 144.621094 34.628906 144.136719 C 44.617188 140.605469 54.632812 137.15625 64.621094 133.628906 C 73.136719 130.621094 81.480469 126.636719 90.199219 124.308594 C 90.089844 124.957031 89.941406 125.605469 90.375 126.09375 " fill-opacity="1" fill-rule="nonzero"/><path fill="#ffffff" d="M 94.105469 126.449219 C 94.230469 126.820312 94.039062 127.019531 94.304688 127.351562 C 76.136719 133.113281 58.164062 139.644531 39.613281 144.136719 C 49.476562 140.820312 59.472656 137.9375 69.414062 134.871094 C 74.367188 133.34375 79.242188 131.617188 84.101562 129.820312 C 87.328125 128.625 90.71875 126.902344 94.105469 126.449219 " fill-opacity="1" fill-rule="nonzero"/><path fill="#ffffff" d="M 97.511719 128.230469 C 98.4375 130.203125 93.847656 130.5 92.460938 130.832031 C 90.0625 131.402344 87.648438 131.921875 85.242188 132.445312 C 80.613281 133.449219 76.027344 134.558594 71.492188 135.917969 C 75.75 134.558594 79.980469 133.132812 84.222656 131.738281 C 86.078125 131.125 96.652344 126.824219 97.511719 128.230469 " fill-opacity="1" fill-rule="nonzero"/><path fill="#ffffff" d="M 101.773438 131.976562 C 102.074219 132.035156 102.375 132.09375 102.671875 132.152344 C 81.21875 137.414062 59.289062 140.566406 37.839844 145.917969 C 49.921875 142.09375 62.394531 139.660156 74.546875 136.21875 C 79.96875 134.683594 85.441406 133.632812 90.90625 132.261719 C 93.652344 131.574219 96.382812 130.828125 99.132812 130.160156 C 101.5 129.585938 100.078125 131.28125 101.773438 131.976562 " fill-opacity="1" fill-rule="nonzero"/><path fill="#ffffff" d="M 103.546875 133.230469 C 103.570312 135.109375 82.820312 137.375 80.054688 137.703125 C 84.050781 137.109375 88.039062 136.441406 91.996094 135.617188 C 94.0625 135.1875 96.128906 134.765625 98.1875 134.292969 C 99.605469 133.96875 102.273438 132.859375 103.546875 133.230469 " fill-opacity="1" fill-rule="nonzero"/><path fill="#ffffff" d="M 105.152344 135.722656 C 94.53125 137.265625 84.144531 139.875 73.605469 141.839844 C 64.050781 143.617188 54.269531 144.8125 44.597656 145.742188 C 54.683594 143.601562 64.777344 141.511719 74.933594 139.726562 C 85.046875 137.953125 95.265625 136.761719 105.351562 134.839844 C 105.335938 134.925781 105.15625 135.714844 105.152344 135.722656 " fill-opacity="1" fill-rule="nonzero"/><path fill="#ffffff" d="M 108.710938 136.449219 C 109.273438 167.464844 107.382812 198.550781 107.3125 229.578125 C 107.308594 230.886719 107.324219 232.1875 107.363281 233.492188 C 107.417969 235.335938 108.308594 237.265625 106.328125 237.636719 C 102.449219 238.367188 98.570312 239.113281 94.691406 239.867188 C 88.0625 241.164062 81.449219 242.574219 74.832031 243.941406 C 61.355469 246.722656 47.78125 248.808594 34.28125 251.363281 C 33.953125 220.429688 34.402344 189.464844 34.589844 158.53125 C 34.589844 157.886719 34.367188 148.285156 34.722656 148.246094 C 38.539062 147.820312 42.351562 147.382812 46.164062 146.929688 C 52.75 146.144531 59.328125 145.167969 65.875 144.089844 C 80.0625 141.75 94.417969 137.535156 108.710938 136.449219 " fill-opacity="1" fill-rule="nonzero"/><path fill="#ffffff" d="M 26.96875 147.878906 C 27.699219 147.921875 27.992188 148.382812 28.613281 148.605469 C 30.078125 149.136719 31.59375 149.085938 33.203125 149.15625 C 31.773438 151.917969 27.828125 149.652344 26.066406 148.605469 C 24.835938 147.878906 19.152344 143.683594 22.882812 142.351562 C 22.480469 144.902344 25.195312 146.707031 26.96875 147.878906 " fill-opacity="1" fill-rule="nonzero"/><path fill="#ffffff" d="M 30.875 146.09375 C 30.675781 146.011719 30.503906 145.988281 30.371094 145.742188 C 31.316406 145.324219 32.257812 144.90625 33.203125 144.488281 C 33.679688 145.917969 31.832031 145.902344 30.875 146.09375 " fill-opacity="1" fill-rule="nonzero"/><path fill="#ffffff" d="M 36.386719 146.09375 C 35.441406 146.21875 34.5 146.34375 33.554688 146.46875 C 34.390625 145.902344 35.496094 146.136719 36.386719 146.09375 " fill-opacity="1" fill-rule="nonzero"/><path fill="#ffffff" d="M 31.777344 151.648438 C 32.195312 151.402344 32.746094 151.25 33.203125 151.097656 C 33.023438 184.160156 32.839844 217.226562 32.660156 250.289062 C 32.652344 251.765625 33.269531 252.484375 31.46875 252.839844 C 28.808594 253.363281 26.457031 251.191406 24.5625 249.644531 C 21.648438 247.261719 22.660156 242.820312 22.632812 239.347656 C 22.597656 235.234375 22.566406 231.117188 22.53125 227.003906 C 22.417969 212.234375 22.300781 197.460938 22.199219 182.691406 C 22.148438 175.445312 22.097656 168.203125 22.050781 160.960938 C 22.019531 156.34375 22.5 151.214844 21.632812 146.644531 C 24.292969 149.425781 27.757812 151.863281 31.777344 151.644531 " fill-opacity="1" fill-rule="nonzero"/><path fill="#ffffff" d="M 33.027344 147.703125 C 32.785156 147.886719 32.542969 148.070312 32.304688 148.253906 C 32.558594 147.4375 32.324219 147.832031 31.953125 147 C 32.128906 146.882812 32.304688 146.765625 32.480469 146.644531 C 32.582031 147.078125 32.902344 147.359375 33.027344 147.703125 " fill-opacity="1" fill-rule="nonzero"/><path fill="#ffffff" d="M 73.625 163.253906 C 74.074219 163.519531 73.902344 165.597656 73.648438 166.46875 C 73.042969 165.085938 72.035156 163.617188 70.417969 163.429688 C 72.019531 163.089844 72.496094 162.175781 72.570312 160.589844 C 72.902344 161.519531 72.199219 163.429688 73.625 163.253906 " fill-opacity="1" fill-rule="nonzero"/><path fill="#ffffff" d="M 68.8125 161.449219 C 68.507812 162.074219 68.824219 162.714844 69.1875 163.253906 C 68.652344 163.03125 67.285156 162.359375 67.230469 161.710938 C 67.140625 160.582031 68.378906 160.949219 68.8125 161.449219 " fill-opacity="1" fill-rule="nonzero"/><path fill="#ffffff" d="M 96.785156 185.589844 C 96.910156 186.9375 95.707031 188.066406 95.886719 189.710938 C 95.488281 188.914062 94.554688 188.089844 93.601562 188.453125 C 92.179688 189 92.527344 191.429688 92.527344 192.574219 C 92.070312 191.511719 90.5625 187.589844 91.449219 186.496094 C 92.019531 185.792969 95.878906 185.617188 96.785156 185.589844 " fill-opacity="1" fill-rule="nonzero"/><path fill="#ffffff" d="M 100.515625 191.847656 C 100.523438 192.03125 100.53125 192.214844 100.539062 192.398438 C 100.199219 191.53125 99.824219 190.699219 99.296875 189.929688 C 98.703125 189.054688 97.28125 188.929688 97.355469 188.253906 C 97.523438 186.679688 100.664062 190.429688 100.515625 191.847656 " fill-opacity="1" fill-rule="nonzero"/><path fill="#ffffff" d="M 83.242188 195.0625 C 82.0625 195.402344 80.859375 195.941406 79.882812 194.898438 C 79.324219 194.300781 77.4375 194.472656 77.28125 194.160156 C 76.890625 193.378906 76.097656 190.664062 76.832031 189.886719 C 77.183594 189.515625 79.664062 189.394531 80.277344 189.226562 C 81.394531 188.921875 82.492188 188.558594 83.613281 188.277344 C 83.484375 190.546875 83.140625 192.785156 83.242188 195.0625 " fill-opacity="1" fill-rule="nonzero"/><path fill="#ffffff" d="M 96.433594 191.140625 C 97.25 192.839844 97.746094 194.632812 98.039062 196.492188 C 97.332031 195.074219 95.972656 191.109375 93.777344 192.21875 C 93.835938 191.382812 93.894531 190.546875 93.953125 189.707031 C 95.058594 189.910156 95.175781 192.21875 96.433594 191.140625 " fill-opacity="1" fill-rule="nonzero"/><path fill="#ffffff" d="M 67.914062 191.492188 C 68.515625 194.035156 65.460938 195.289062 66.511719 197.75 C 61.972656 198.855469 64.335938 202.886719 62.953125 205.789062 C 62.925781 204.902344 62.695312 204.046875 62.644531 203.167969 C 62.589844 202.175781 63.132812 201.261719 63.128906 200.4375 C 63.128906 199.308594 62.414062 197.863281 62.382812 196.582031 C 62.347656 195.214844 62.5 193.898438 62.074219 192.570312 C 64.003906 192.199219 66.054688 191.847656 67.914062 191.492188 " fill-opacity="1" fill-rule="nonzero"/><path fill="#ffffff" d="M 92.332031 194.160156 C 93.792969 193.503906 95.03125 197.644531 94.835938 199.007812 C 93.785156 198.207031 93.582031 196.847656 92.761719 195.878906 C 92.367188 195.414062 91.070312 195.308594 90.90625 195.0625 C 90.578125 194.578125 90.90625 192.839844 90.90625 192.222656 C 91.5625 192.765625 91.691406 193.734375 92.332031 194.160156 " fill-opacity="1" fill-rule="nonzero"/><path fill="#ffffff" d="M 90.199219 196.316406 C 90.449219 198.3125 91.261719 200.191406 91.453125 202.195312 C 90.476562 201.734375 89.0625 198.878906 87.71875 200.082031 C 86.65625 201.03125 88.554688 204.53125 88.421875 205.785156 C 86.816406 203.976562 86.28125 201.351562 86.117188 199.003906 C 89.054688 201.65625 88.269531 197.121094 88.246094 195.414062 C 88.605469 196.195312 89.378906 196.757812 90.199219 196.316406 " fill-opacity="1" fill-rule="nonzero"/><path fill="#ffffff" d="M 79.429688 196.96875 C 78.1875 196.847656 75.75 196.808594 76.730469 198.886719 C 77.34375 200.191406 77.570312 197.191406 79.078125 198.226562 C 78.746094 198.976562 78.1875 199.738281 77.398438 200.042969 C 75.480469 200.785156 75.875 197.660156 75.875 196.773438 C 76.464844 197.464844 78.066406 195.429688 79.429688 196.96875 " fill-opacity="1" fill-rule="nonzero"/><path fill="#ffffff" d="M 67.488281 198.554688 C 67.414062 198.867188 67.1875 199.195312 66.984375 199.457031 C 65.5 197.835938 64.234375 202.011719 64.832031 203.203125 C 65.253906 204.046875 68.328125 206.121094 68.9375 205.539062 C 69.121094 205.726562 69.523438 206.203125 69.640625 206.441406 C 68.453125 206.382812 67.269531 206.324219 66.082031 206.265625 C 68.289062 206.089844 64.769531 204.542969 64.371094 203.773438 C 63.253906 201.632812 64.796875 197.917969 67.488281 198.554688 " fill-opacity="1" fill-rule="nonzero"/><path fill="#ffffff" d="M 61.253906 208.574219 C 60.421875 208.964844 59.566406 208.777344 58.71875 209.027344 C 57.550781 209.371094 57.75 210.285156 58.9375 210.21875 C 59.320312 210.195312 61.433594 209.5 61.457031 209.984375 C 61.566406 212.175781 62.148438 213.09375 60.242188 214.050781 C 59.445312 214.449219 58.15625 215.207031 57.433594 214.808594 C 56.570312 214.335938 56.980469 213.042969 56.578125 212.78125 C 54.082031 211.1875 55.871094 214.605469 56.117188 215.183594 C 55.40625 215.445312 54.699219 215.375 53.984375 215.152344 C 53.335938 214.949219 52.96875 213.960938 52.867188 213.929688 C 51.480469 213.480469 50.863281 216.492188 48.980469 216.792969 C 49.355469 215.804688 49.832031 214.765625 49.96875 213.707031 C 50.109375 212.605469 49.324219 211.691406 49.351562 210.890625 C 49.386719 209.972656 50.746094 208.183594 51.460938 207.671875 C 51.285156 207.496094 51.109375 207.320312 50.933594 207.144531 C 51.433594 206.757812 51.949219 206.441406 52.535156 206.261719 C 51.949219 206.742188 51.882812 207.988281 52.777344 208.222656 C 53.320312 208.367188 53.394531 207.273438 54.085938 207.222656 C 54.648438 207.179688 54.859375 206.683594 55.324219 206.484375 C 56.296875 206.066406 58.71875 204.578125 58.265625 206.835938 C 58.011719 208.105469 56.660156 210.023438 55.214844 209.65625 C 57.503906 209.441406 55.917969 207.59375 54.6875 208.398438 C 53.191406 209.378906 55.390625 210.269531 54.511719 211.085938 C 53.980469 210.160156 51.613281 208.484375 52.359375 210.535156 C 52.433594 210.742188 53.925781 212.160156 54.203125 212.253906 C 55.027344 212.53125 56.238281 211.425781 55.585938 210.710938 C 57.75 210.785156 60.867188 206.710938 58.847656 204.996094 C 57.675781 204 56.359375 204.613281 55.238281 205.289062 C 52.371094 207.007812 54.128906 205.609375 54.160156 204.457031 C 56.214844 204.332031 56.894531 202.183594 58.550781 201.351562 C 59.355469 200.949219 60.265625 201.164062 61.097656 201.066406 C 61.15625 203.550781 61.324219 206.128906 61.253906 208.574219 " fill-opacity="1" fill-rule="nonzero"/><path fill="#ffffff" d="M 80.683594 204.808594 C 79.644531 206.148438 77.328125 205.871094 75.523438 206.085938 C 75.949219 205.863281 76.171875 205.125 76.46875 204.984375 C 76.90625 204.773438 77.023438 205.050781 77.628906 204.917969 C 78.527344 204.722656 80.207031 204.210938 80.683594 204.808594 " fill-opacity="1" fill-rule="nonzero"/><path fill="#ffffff" d="M 97.136719 212.019531 C 95.398438 212.738281 93.492188 213.003906 91.628906 213.121094 C 91.753906 211.269531 91 208.140625 93.054688 207.042969 C 94.3125 206.371094 95.988281 206.976562 97.3125 206.160156 C 97.496094 208.101562 97.039062 210.148438 97.136719 212.019531 " fill-opacity="1" fill-rule="nonzero"/><path fill="#ffffff" d="M 88.597656 213.628906 C 88.003906 213.695312 87.410156 213.761719 86.820312 213.828125 C 88.0625 212.457031 89.304688 211.082031 90.550781 209.710938 C 90.460938 211.054688 91.117188 214.597656 88.597656 213.628906 " fill-opacity="1" fill-rule="nonzero"/><path fill="#000000" d="M 52.964844 212.921875 C 52.1875 213.21875 49.597656 212.925781 51.183594 212.242188 C 51.777344 211.984375 52.929688 212.453125 52.964844 212.921875 " fill-opacity="1" fill-rule="nonzero"/><path fill="#ffffff" d="M 96.960938 219.007812 C 95.160156 219.429688 93.289062 219.566406 91.449219 219.734375 C 91.449219 217.769531 90.421875 214.425781 92.691406 214.226562 C 94.125 214.101562 95.78125 213.382812 97.136719 213.476562 C 97.078125 215.300781 97.019531 217.261719 96.960938 219.007812 " fill-opacity="1" fill-rule="nonzero"/><path fill="#ffffff" d="M 54.917969 218.628906 C 54.539062 218.625 54.238281 218.582031 54.257812 219.15625 C 54.300781 220.253906 56.597656 219.824219 57.019531 219.800781 C 58.734375 219.695312 58.339844 221.296875 58.683594 222.824219 C 58.964844 224.082031 59.449219 225.578125 59.351562 226.625 C 59.253906 227.699219 59.988281 227.660156 58.367188 228.085938 C 56.929688 228.460938 55.378906 228.472656 53.902344 228.472656 C 50.851562 228.472656 47.738281 227.914062 44.773438 227.21875 C 45.667969 225.132812 46.558594 223.046875 47.453125 220.964844 C 49.050781 223.484375 52.242188 220.097656 49.605469 218.121094 C 50.710938 217.917969 51.039062 217.050781 51.910156 216.511719 C 53.324219 215.640625 53.066406 216.285156 54.414062 216.511719 C 56.914062 216.933594 60.066406 216 62.074219 214.53125 C 60.21875 216.511719 58.050781 219.707031 54.917969 218.628906 " fill-opacity="1" fill-rule="nonzero"/><path fill="#ffffff" d="M 90.375 219.882812 C 88.539062 220.246094 86.703125 220.605469 84.863281 220.964844 C 84.863281 218.988281 84.058594 216.269531 85.875 215.300781 C 87.144531 214.625 89 214.996094 90.375 214.53125 L 90.375 219.882812 " fill-opacity="1" fill-rule="nonzero"/><path fill="#ffffff" d="M 69.988281 216.96875 C 68.929688 218.957031 66.648438 219.6875 70.539062 220.007812 C 70.199219 221.410156 70.636719 222.972656 69.109375 223.777344 C 68.585938 224.050781 67.160156 224.039062 66.476562 224.261719 C 65.554688 224.554688 64.738281 224.933594 63.753906 225.03125 L 63.753906 221.191406 C 63.753906 219.582031 63.433594 218.683594 64.414062 218.003906 C 65.527344 217.230469 68.65625 216.804688 69.988281 216.96875 " fill-opacity="1" fill-rule="nonzero"/><path fill="#ffffff" d="M 78.628906 222.042969 C 78.574219 220.578125 82.445312 218.089844 83.609375 217.042969 C 83.609375 217.578125 83.832031 221.097656 83.496094 221.160156 C 81.871094 221.453125 80.25 221.75 78.628906 222.042969 " fill-opacity="1" fill-rule="nonzero"/><path fill="#ffffff" d="M 62.503906 226.617188 C 62.011719 226.199219 61.636719 226.613281 60.96875 226.882812 C 59.960938 227.285156 60 225.171875 59.824219 224.449219 C 59.425781 222.789062 59.609375 219.929688 58.945312 218.953125 C 60.054688 218.429688 61.335938 218.429688 62.527344 218.226562 C 62.527344 221.007812 62.621094 223.878906 62.503906 226.617188 " fill-opacity="1" fill-rule="nonzero"/><path fill="#ffffff" d="M 91.277344 227.046875 C 91.308594 225.898438 90.742188 221.75 91.453125 220.96875 C 92.472656 219.839844 95.714844 221.097656 96.960938 219.910156 L 96.960938 226.246094 C 96.960938 226.542969 91.925781 226.964844 91.277344 227.046875 " fill-opacity="1" fill-rule="nonzero"/><path fill="#ffffff" d="M 90.199219 227.222656 C 88.359375 227.597656 86.515625 227.960938 84.667969 228.300781 C 84.667969 226.683594 83.792969 222.40625 85.511719 222.058594 C 87.089844 221.738281 88.605469 221.195312 90.199219 220.96875 L 90.199219 227.222656 " fill-opacity="1" fill-rule="nonzero"/><path fill="#ffffff" d="M 83.414062 222.394531 C 83.414062 223.464844 84.070312 227.921875 83.414062 228.652344 C 82.976562 229.136719 79.066406 229.421875 78.253906 229.554688 C 78.203125 228.519531 77.859375 223.800781 78.453125 223.121094 C 79.003906 222.488281 82.464844 222.726562 83.414062 222.394531 " fill-opacity="1" fill-rule="nonzero"/><path fill="#ffffff" d="M 76.953125 229.484375 C 75.402344 229.800781 73.929688 230.410156 72.320312 230.210938 C 72.550781 227.871094 73.382812 223.222656 76.753906 223.226562 C 76.820312 225.3125 76.886719 227.398438 76.953125 229.484375 " fill-opacity="1" fill-rule="nonzero"/><path fill="#ffffff" d="M 68.039062 225.183594 C 67.09375 226.503906 66.136719 229.21875 64.832031 229.832031 C 65.472656 230.136719 65.195312 230.886719 65.007812 231.640625 C 64.429688 230.804688 63.273438 230.019531 64.480469 229.128906 C 63.582031 228.429688 64.105469 227.242188 63.757812 226.265625 C 65.214844 226.070312 66.628906 225.199219 68.039062 225.183594 " fill-opacity="1" fill-rule="nonzero"/><path fill="#ffffff" d="M 62.152344 229.304688 C 61.222656 229.496094 60.523438 229.230469 60.78125 228.28125 C 60.945312 227.675781 62.285156 227.734375 62.703125 227.148438 C 62.75 227.921875 62.902344 228.882812 62.152344 229.304688 " fill-opacity="1" fill-rule="nonzero"/><path fill="#ffffff" d="M 96.960938 232.574219 C 95.066406 232.875 93.171875 233.175781 91.277344 233.476562 L 91.277344 228.421875 C 91.277344 228.089844 93.839844 227.859375 94.238281 227.816406 C 94.574219 227.78125 96.960938 227.507812 96.960938 227.886719 L 96.960938 232.574219 " fill-opacity="1" fill-rule="nonzero"/><path fill="#ffffff" d="M 68.914062 228.050781 C 69.378906 229.476562 67.921875 231.984375 66.742188 231.488281 C 67.085938 230.613281 68.371094 228.128906 68.914062 228.050781 " fill-opacity="1" fill-rule="nonzero"/><path fill="#ffffff" d="M 90.199219 233.652344 C 88.296875 234.011719 86.394531 234.375 84.492188 234.734375 C 84.484375 234.089844 84.648438 233.617188 85.042969 233.300781 C 84.125 232.628906 85.648438 231.453125 84.667969 231.339844 C 84.667969 229.183594 84.734375 229.488281 86.65625 229.183594 C 87.84375 228.992188 89.019531 228.710938 90.199219 228.476562 C 90.199219 230.203125 90.199219 231.929688 90.199219 233.652344 " fill-opacity="1" fill-rule="nonzero"/><path fill="#ffffff" d="M 50.582031 229.128906 C 50.808594 230.542969 48.464844 230.742188 47.507812 231.332031 C 45.351562 232.664062 44.472656 233.9375 44.699219 236.464844 C 43.457031 236.46875 42.179688 236.320312 40.964844 236.640625 L 40.964844 232.085938 C 40.964844 230.269531 40.714844 230.371094 42.328125 230.097656 C 43.179688 229.957031 46.441406 228.863281 46.332031 230.066406 C 46.21875 231.363281 47.550781 232.230469 47.550781 230.726562 C 47.550781 228.375 47.988281 228.785156 50.582031 229.128906 " fill-opacity="1" fill-rule="nonzero"/><path fill="#ffffff" d="M 83.613281 234.65625 C 81.902344 234.949219 80.191406 235.265625 78.453125 235.382812 L 78.453125 234.832031 C 78.824219 234.867188 78.902344 234.742188 79.15625 234.65625 C 78.257812 234.320312 77.765625 231.320312 78.453125 230.539062 C 78.96875 229.953125 82.441406 229.53125 83.417969 229.480469 C 83.488281 231.207031 83.285156 232.953125 83.613281 234.65625 " fill-opacity="1" fill-rule="nonzero"/><path fill="#ffffff" d="M 55.390625 233.402344 C 56.226562 233.507812 58.875 234.386719 58.683594 232.9375 C 58.480469 231.378906 54.804688 232.300781 55.808594 230.605469 C 56.808594 228.914062 61.722656 230.304688 62.941406 231.308594 C 65.175781 233.144531 63.414062 234.535156 61.789062 235.945312 C 58.964844 238.398438 49.988281 239.636719 46.871094 237.257812 C 43.824219 234.929688 47.738281 231.792969 50.230469 231.464844 C 50.375 232.988281 49.960938 234.921875 52.382812 234.769531 C 54.820312 234.613281 54.472656 232.074219 51.832031 232.34375 C 52.367188 231.507812 52.902344 230.671875 53.4375 229.832031 C 54.746094 230.710938 53.648438 232.976562 55.390625 233.402344 " fill-opacity="1" fill-rule="nonzero"/><path fill="#ffffff" d="M 77.003906 235.738281 C 75.429688 235.773438 73.964844 236.449219 72.390625 236.464844 C 72.386719 236.230469 72.664062 234.902344 72.65625 234.886719 C 72.273438 234.363281 72.265625 233.332031 72.390625 232.71875 C 72.652344 231.4375 72.527344 231.667969 73.941406 231.398438 C 74.964844 231.199219 75.988281 230.992188 77.003906 230.734375 L 77.003906 235.738281 " fill-opacity="1" fill-rule="nonzero"/><path fill="#ffffff" d="M 63.929688 237.320312 C 63.539062 238.675781 58.117188 238.875 56.640625 239.480469 L 56.640625 239.128906 C 58.378906 238.648438 60.101562 238.074219 61.703125 237.242188 C 63.121094 236.507812 63.171875 236.136719 63.929688 237.320312 " fill-opacity="1" fill-rule="nonzero"/><path fill="#ffffff" d="M 46.675781 238.578125 C 46.683594 239.179688 46.332031 241.109375 47.023438 241.460938 C 48.296875 242.109375 47.917969 239.644531 47.925781 239.128906 C 50.285156 239.921875 53.015625 239.570312 55.414062 239.128906 C 53.769531 240.375 51.636719 240.445312 49.703125 240.910156 C 46.730469 241.628906 43.8125 242.371094 40.789062 242.894531 C 40.855469 241.398438 40.839844 239.855469 41.359375 238.753906 C 41.628906 238.183594 41.59375 238.429688 41.515625 237.894531 C 43.238281 237.097656 45.28125 237.476562 46.675781 238.578125 " fill-opacity="1" fill-rule="nonzero"/><path fill="#ffffff" d="M 49.332031 210.890625 C 49.832031 209.800781 50.289062 208.316406 51.371094 207.71875 C 51.226562 207.527344 51.078125 207.335938 50.933594 207.144531 C 51.402344 206.640625 51.910156 206.308594 52.535156 206.265625 C 52.03125 206.640625 52.074219 207.371094 52.140625 207.851562 C 52.054688 207.777344 52.234375 207.78125 52.207031 207.742188 C 52.972656 208.71875 54.953125 206.234375 56.160156 205.78125 C 60.152344 204.269531 57.6875 210.273438 55.214844 209.65625 C 57.433594 209.09375 55.660156 207.585938 54.578125 208.445312 C 53.46875 209.328125 54.855469 209.863281 54.773438 210.363281 C 54.636719 211.234375 54.652344 211.097656 53.765625 210.207031 C 53.035156 209.476562 51.589844 209.296875 52.359375 210.539062 C 53.285156 210.949219 53.875 212.761719 55.039062 212.035156 C 55.085938 212.554688 54.933594 213.191406 55.105469 213.667969 C 55.253906 214.078125 56.074219 214.28125 56.050781 214.789062 C 55.980469 216.28125 53.539062 214.878906 52.910156 214.546875 C 52.234375 214.191406 53.410156 213.210938 51.964844 213.996094 C 51.597656 214.199219 51.335938 215.136719 51.066406 215.472656 C 50.515625 216.152344 49.960938 216.820312 48.980469 216.796875 C 49.703125 214.929688 50.679688 212.6875 49.332031 210.890625 " fill-opacity="1" fill-rule="nonzero"/><g fill="#ffffff" fill-opacity="1"><g transform="translate(116.93093, 182.249988)"><g><path d="M 32.96875 -33.59375 L 32.96875 -13.921875 C 32.96875 -9.535156 31.671875 -6.078125 29.078125 -3.546875 C 26.492188 -1.023438 22.925781 0.234375 18.375 0.234375 C 13.832031 0.234375 10.257812 -1.023438 7.65625 -3.546875 C 5.050781 -6.078125 3.75 -9.535156 3.75 -13.921875 L 3.75 -33.59375 L 9.40625 -33.59375 L 9.40625 -13.921875 C 9.40625 -11.109375 10.210938 -8.890625 11.828125 -7.265625 C 13.441406 -5.648438 15.644531 -4.84375 18.4375 -4.84375 C 21.1875 -4.84375 23.351562 -5.640625 24.9375 -7.234375 C 26.519531 -8.835938 27.3125 -11.066406 27.3125 -13.921875 L 27.3125 -33.59375 Z M 32.96875 -33.59375 "/></g></g></g><g fill="#ffffff" fill-opacity="1"><g transform="translate(153.602867, 182.249988)"><g><path d="M 19.015625 -25.734375 C 21.984375 -25.734375 24.304688 -24.859375 25.984375 -23.109375 C 27.671875 -21.367188 28.515625 -18.960938 28.515625 -15.890625 L 28.515625 0 L 22.984375 0 L 22.984375 -14.359375 C 22.984375 -16.273438 22.441406 -17.785156 21.359375 -18.890625 C 20.273438 -19.992188 18.769531 -20.546875 16.84375 -20.546875 C 14.800781 -20.515625 13.128906 -19.859375 11.828125 -18.578125 C 10.535156 -17.296875 9.789062 -15.628906 9.59375 -13.578125 L 9.59375 0 L 4.078125 0 L 4.078125 -25.53125 L 9.59375 -25.53125 L 9.59375 -20.640625 C 11.320312 -24.035156 14.460938 -25.734375 19.015625 -25.734375 Z M 19.015625 -25.734375 "/></g></g></g><g fill="#ffffff" fill-opacity="1"><g transform="translate(185.426813, 182.249988)"><g><path d="M 4.5 -35.25 C 5.113281 -35.875 5.882812 -36.1875 6.8125 -36.1875 C 7.738281 -36.1875 8.503906 -35.875 9.109375 -35.25 C 9.722656 -34.625 10.03125 -33.816406 10.03125 -32.828125 C 10.03125 -31.867188 9.722656 -31.078125 9.109375 -30.453125 C 8.503906 -29.828125 7.738281 -29.515625 6.8125 -29.515625 C 5.882812 -29.515625 5.113281 -29.828125 4.5 -30.453125 C 3.894531 -31.078125 3.59375 -31.867188 3.59375 -32.828125 C 3.59375 -33.816406 3.894531 -34.625 4.5 -35.25 Z M 9.546875 0 L 4.078125 0 L 4.078125 -25.53125 L 9.546875 -25.53125 Z M 9.546875 0 "/></g></g></g><g fill="#ffffff" fill-opacity="1"><g transform="translate(199.058785, 182.249988)"><g><path d="M 15.640625 0 L 9.9375 0 L 0.046875 -25.53125 L 5.8125 -25.53125 L 12.90625 -5.421875 L 19.921875 -25.53125 L 25.4375 -25.53125 Z M 15.640625 0 "/></g></g></g><g fill="#ffffff" fill-opacity="1"><g transform="translate(224.258743, 182.249988)"><g><path d="M 14.59375 -25.734375 C 18.976562 -25.734375 22.15625 -24.410156 24.125 -21.765625 C 26.09375 -19.128906 26.898438 -15.425781 26.546875 -10.65625 L 7.25 -10.65625 C 7.695312 -8.675781 8.625 -7.113281 10.03125 -5.96875 C 11.4375 -4.832031 13.148438 -4.265625 15.171875 -4.265625 C 18.046875 -4.265625 20.445312 -5.257812 22.375 -7.25 L 25.296875 -4.125 C 22.671875 -1.25 19.148438 0.1875 14.734375 0.1875 C 10.796875 0.1875 7.632812 -1 5.25 -3.375 C 2.875 -5.757812 1.6875 -8.875 1.6875 -12.71875 C 1.6875 -16.5625 2.882812 -19.679688 5.28125 -22.078125 C 7.675781 -24.484375 10.78125 -25.703125 14.59375 -25.734375 Z M 7.15625 -14.6875 L 21.75 -14.6875 C 21.644531 -16.738281 20.953125 -18.351562 19.671875 -19.53125 C 18.398438 -20.71875 16.722656 -21.3125 14.640625 -21.3125 C 12.617188 -21.3125 10.941406 -20.71875 9.609375 -19.53125 C 8.285156 -18.351562 7.46875 -16.738281 7.15625 -14.6875 Z M 7.15625 -14.6875 "/></g></g></g><g fill="#ffffff" fill-opacity="1"><g transform="translate(252.482698, 182.249988)"><g><path d="M 9.59375 -25.53125 L 9.59375 -20.453125 C 11.351562 -23.972656 14.300781 -25.734375 18.4375 -25.734375 L 18.4375 -20.453125 C 15.90625 -20.578125 13.851562 -19.984375 12.28125 -18.671875 C 10.71875 -17.359375 9.820312 -15.582031 9.59375 -13.34375 L 9.59375 0 L 4.078125 0 L 4.078125 -25.53125 Z M 9.59375 -25.53125 "/></g></g></g><g fill="#ffffff" fill-opacity="1"><g transform="translate(271.394665, 182.249988)"><g><path d="M 11.71875 -25.78125 C 15.226562 -25.78125 18.203125 -24.914062 20.640625 -23.1875 L 18.625 -19.109375 C 16.1875 -20.609375 13.738281 -21.359375 11.28125 -21.359375 C 8.78125 -21.359375 7.53125 -20.507812 7.53125 -18.8125 C 7.53125 -17.976562 7.992188 -17.289062 8.921875 -16.75 C 9.847656 -16.207031 10.972656 -15.75 12.296875 -15.375 C 13.628906 -15.007812 14.957031 -14.578125 16.28125 -14.078125 C 17.613281 -13.585938 18.742188 -12.78125 19.671875 -11.65625 C 20.609375 -10.539062 21.078125 -9.117188 21.078125 -7.390625 C 21.078125 -4.929688 20.140625 -3.050781 18.265625 -1.75 C 16.390625 -0.457031 14.0625 0.1875 11.28125 0.1875 C 9.363281 0.1875 7.484375 -0.125 5.640625 -0.75 C 3.796875 -1.375 2.253906 -2.242188 1.015625 -3.359375 L 2.96875 -7.296875 C 4.0625 -6.335938 5.398438 -5.566406 6.984375 -4.984375 C 8.566406 -4.410156 10.078125 -4.125 11.515625 -4.125 C 12.765625 -4.125 13.773438 -4.347656 14.546875 -4.796875 C 15.316406 -5.242188 15.703125 -5.929688 15.703125 -6.859375 C 15.703125 -7.816406 15.234375 -8.582031 14.296875 -9.15625 C 13.367188 -9.738281 12.25 -10.207031 10.9375 -10.5625 C 9.625 -10.914062 8.3125 -11.332031 7 -11.8125 C 5.695312 -12.289062 4.585938 -13.082031 3.671875 -14.1875 C 2.753906 -15.289062 2.296875 -16.691406 2.296875 -18.390625 C 2.296875 -20.816406 3.203125 -22.65625 5.015625 -23.90625 C 6.828125 -25.15625 9.0625 -25.78125 11.71875 -25.78125 Z M 11.71875 -25.78125 "/></g></g></g><g fill="#ffffff" fill-opacity="1"><g transform="translate(293.954631, 182.249988)"><g><path d="M 15.03125 -25.734375 C 18.957031 -25.734375 22.148438 -24.539062 24.609375 -22.15625 C 27.078125 -19.769531 28.3125 -16.640625 28.3125 -12.765625 C 28.3125 -8.929688 27.078125 -5.8125 24.609375 -3.40625 C 22.148438 -1.007812 18.957031 0.1875 15.03125 0.1875 C 11.0625 0.1875 7.84375 -1.007812 5.375 -3.40625 C 2.914062 -5.8125 1.6875 -8.929688 1.6875 -12.765625 C 1.6875 -16.640625 2.914062 -19.769531 5.375 -22.15625 C 7.84375 -24.539062 11.0625 -25.734375 15.03125 -25.734375 Z M 15.03125 -20.96875 C 12.71875 -20.96875 10.832031 -20.203125 9.375 -18.671875 C 7.925781 -17.140625 7.203125 -15.15625 7.203125 -12.71875 C 7.203125 -10.257812 7.925781 -8.257812 9.375 -6.71875 C 10.832031 -5.1875 12.710938 -4.421875 15.015625 -4.421875 C 17.328125 -4.421875 19.203125 -5.1875 20.640625 -6.71875 C 22.078125 -8.257812 22.796875 -10.257812 22.796875 -12.71875 C 22.796875 -15.15625 22.066406 -17.140625 20.609375 -18.671875 C 19.160156 -20.203125 17.300781 -20.96875 15.03125 -20.96875 Z M 15.03125 -20.96875 "/></g></g></g><g fill="#ffffff" fill-opacity="1"><g transform="translate(116.93093, 216.538915)"><g><path d="M 6.734375 -3.421875 L 16.4375 -3.421875 L 16.4375 0 L 2.953125 0 L 2.953125 -22.421875 L 6.734375 -22.421875 Z M 6.734375 -3.421875 "/></g></g></g><g fill="#ffffff" fill-opacity="1"><g transform="translate(134.027234, 216.538915)"><g><path d="M 3.015625 -23.53125 C 3.421875 -23.945312 3.929688 -24.15625 4.546875 -24.15625 C 5.171875 -24.15625 5.679688 -23.945312 6.078125 -23.53125 C 6.484375 -23.113281 6.6875 -22.570312 6.6875 -21.90625 C 6.6875 -21.269531 6.484375 -20.742188 6.078125 -20.328125 C 5.679688 -19.910156 5.171875 -19.703125 4.546875 -19.703125 C 3.929688 -19.703125 3.421875 -19.910156 3.015625 -20.328125 C 2.609375 -20.742188 2.40625 -21.269531 2.40625 -21.90625 C 2.40625 -22.570312 2.609375 -23.113281 3.015625 -23.53125 Z M 6.375 0 L 2.71875 0 L 2.71875 -17.046875 L 6.375 -17.046875 Z M 6.375 0 "/></g></g></g><g fill="#ffffff" fill-opacity="1"><g transform="translate(143.119656, 216.538915)"><g><path d="M 11.4375 -3.90625 L 12.359375 -1.09375 C 10.953125 -0.257812 9.554688 0.15625 8.171875 0.15625 C 6.785156 0.15625 5.640625 -0.257812 4.734375 -1.09375 C 3.835938 -1.925781 3.390625 -3.164062 3.390625 -4.8125 L 3.390625 -13.640625 L 1 -13.640625 L 1 -16.40625 L 3.390625 -16.40625 L 3.390625 -21.078125 L 7.046875 -21.078125 L 7.046875 -16.40625 L 12.078125 -16.40625 L 12.078125 -13.640625 L 7.046875 -13.640625 L 7.046875 -5.484375 C 7.046875 -4.628906 7.191406 -4.03125 7.484375 -3.6875 C 7.785156 -3.34375 8.25 -3.171875 8.875 -3.171875 C 9.550781 -3.171875 10.40625 -3.414062 11.4375 -3.90625 Z M 11.4375 -3.90625 "/></g></g></g><g fill="#ffffff" fill-opacity="1"><g transform="translate(156.149989, 216.538915)"><g><path d="M 9.734375 -17.171875 C 12.660156 -17.171875 14.78125 -16.289062 16.09375 -14.53125 C 17.40625 -12.769531 17.945312 -10.296875 17.71875 -7.109375 L 4.84375 -7.109375 C 5.132812 -5.785156 5.75 -4.742188 6.6875 -3.984375 C 7.632812 -3.222656 8.78125 -2.84375 10.125 -2.84375 C 12.039062 -2.84375 13.640625 -3.507812 14.921875 -4.84375 L 16.875 -2.75 C 15.125 -0.832031 12.773438 0.125 9.828125 0.125 C 7.203125 0.125 5.09375 -0.664062 3.5 -2.25 C 1.914062 -3.84375 1.125 -5.921875 1.125 -8.484375 C 1.125 -11.046875 1.921875 -13.128906 3.515625 -14.734375 C 5.117188 -16.335938 7.191406 -17.148438 9.734375 -17.171875 Z M 4.765625 -9.796875 L 14.515625 -9.796875 C 14.453125 -11.171875 13.992188 -12.25 13.140625 -13.03125 C 12.285156 -13.820312 11.160156 -14.21875 9.765625 -14.21875 C 8.421875 -14.21875 7.304688 -13.820312 6.421875 -13.03125 C 5.535156 -12.25 4.984375 -11.171875 4.765625 -9.796875 Z M 4.765625 -9.796875 "/></g></g></g><g fill="#ffffff" fill-opacity="1"><g transform="translate(174.975141, 216.538915)"><g><path d="M 6.40625 -17.046875 L 6.40625 -13.640625 C 7.582031 -15.992188 9.546875 -17.171875 12.296875 -17.171875 L 12.296875 -13.640625 C 10.609375 -13.734375 9.238281 -13.335938 8.1875 -12.453125 C 7.144531 -11.578125 6.550781 -10.394531 6.40625 -8.90625 L 6.40625 0 L 2.71875 0 L 2.71875 -17.046875 Z M 6.40625 -17.046875 "/></g></g></g><g fill="#ffffff" fill-opacity="1"><g transform="translate(187.589276, 216.538915)"><g><path d="M 10.40625 -19.46875 L 7.140625 -19.46875 L 10.53125 -24.21875 L 14.3125 -22.609375 Z M 12.9375 0 L 12.9375 -2.078125 C 11.71875 -0.585938 9.835938 0.15625 7.296875 0.15625 C 5.484375 0.15625 4.03125 -0.335938 2.9375 -1.328125 C 1.851562 -2.316406 1.3125 -3.582031 1.3125 -5.125 C 1.3125 -6.6875 1.875 -7.925781 3 -8.84375 C 4.132812 -9.757812 5.71875 -10.226562 7.75 -10.25 L 12.90625 -10.25 L 12.90625 -10.765625 C 12.90625 -11.847656 12.554688 -12.6875 11.859375 -13.28125 C 11.171875 -13.882812 10.164062 -14.1875 8.84375 -14.1875 C 7.195312 -14.1875 5.519531 -13.609375 3.8125 -12.453125 L 2.3125 -15.015625 C 3.613281 -15.785156 4.78125 -16.335938 5.8125 -16.671875 C 6.851562 -17.003906 8.128906 -17.171875 9.640625 -17.171875 C 11.816406 -17.171875 13.503906 -16.640625 14.703125 -15.578125 C 15.898438 -14.523438 16.507812 -13.054688 16.53125 -11.171875 L 16.5625 0 Z M 8.078125 -2.75 C 9.378906 -2.75 10.484375 -3.050781 11.390625 -3.65625 C 12.296875 -4.269531 12.800781 -5.046875 12.90625 -5.984375 L 12.90625 -7.5625 L 8.296875 -7.5625 C 7.078125 -7.5625 6.179688 -7.382812 5.609375 -7.03125 C 5.046875 -6.675781 4.765625 -6.09375 4.765625 -5.28125 C 4.765625 -4.507812 5.054688 -3.894531 5.640625 -3.4375 C 6.234375 -2.976562 7.046875 -2.75 8.078125 -2.75 Z M 8.078125 -2.75 "/></g></g></g><g fill="#ffffff" fill-opacity="1"><g transform="translate(206.350399, 216.538915)"><g><path d="M 6.40625 -17.046875 L 6.40625 -13.640625 C 7.582031 -15.992188 9.546875 -17.171875 12.296875 -17.171875 L 12.296875 -13.640625 C 10.609375 -13.734375 9.238281 -13.335938 8.1875 -12.453125 C 7.144531 -11.578125 6.550781 -10.394531 6.40625 -8.90625 L 6.40625 0 L 2.71875 0 L 2.71875 -17.046875 Z M 6.40625 -17.046875 "/></g></g></g><g fill="#ffffff" fill-opacity="1"><g transform="translate(218.964534, 216.538915)"><g><path d="M 3.015625 -23.53125 C 3.421875 -23.945312 3.929688 -24.15625 4.546875 -24.15625 C 5.171875 -24.15625 5.679688 -23.945312 6.078125 -23.53125 C 6.484375 -23.113281 6.6875 -22.570312 6.6875 -21.90625 C 6.6875 -21.269531 6.484375 -20.742188 6.078125 -20.328125 C 5.679688 -19.910156 5.171875 -19.703125 4.546875 -19.703125 C 3.929688 -19.703125 3.421875 -19.910156 3.015625 -20.328125 C 2.609375 -20.742188 2.40625 -21.269531 2.40625 -21.90625 C 2.40625 -22.570312 2.609375 -23.113281 3.015625 -23.53125 Z M 6.375 0 L 2.71875 0 L 2.71875 -17.046875 L 6.375 -17.046875 Z M 6.375 0 "/></g></g></g><g fill="#ffffff" fill-opacity="1"><g transform="translate(228.056956, 216.538915)"><g><path d="M 10.03125 -17.171875 C 12.65625 -17.171875 14.789062 -16.375 16.4375 -14.78125 C 18.082031 -13.1875 18.90625 -11.097656 18.90625 -8.515625 C 18.90625 -5.953125 18.082031 -3.867188 16.4375 -2.265625 C 14.789062 -0.671875 12.65625 0.125 10.03125 0.125 C 7.375 0.125 5.222656 -0.671875 3.578125 -2.265625 C 1.941406 -3.867188 1.125 -5.953125 1.125 -8.515625 C 1.125 -11.097656 1.941406 -13.1875 3.578125 -14.78125 C 5.222656 -16.375 7.375 -17.171875 10.03125 -17.171875 Z M 10.03125 -14 C 8.488281 -14 7.234375 -13.484375 6.265625 -12.453125 C 5.296875 -11.429688 4.8125 -10.109375 4.8125 -8.484375 C 4.8125 -6.835938 5.296875 -5.503906 6.265625 -4.484375 C 7.234375 -3.460938 8.484375 -2.953125 10.015625 -2.953125 C 11.554688 -2.953125 12.804688 -3.460938 13.765625 -4.484375 C 14.734375 -5.503906 15.21875 -6.835938 15.21875 -8.484375 C 15.21875 -10.109375 14.726562 -11.429688 13.75 -12.453125 C 12.78125 -13.484375 11.539062 -14 10.03125 -14 Z M 10.03125 -14 "/></g></g></g></svg>