<svg xmlns="http://www.w3.org/2000/svg" xmlns:xlink="http://www.w3.org/1999/xlink" width="500" zoomAndPan="magnify" viewBox="0 0 375 225" height="300" preserveAspectRatio="xMidYMid meet" version="1.0"><defs><g/></defs><path fill="#000000" d="M 80.847656 38.914062 C 80.847656 40.085938 80.308594 43.425781 81.214844 43.933594 C 81.769531 44.242188 83.160156 43.617188 83.6875 43.417969 C 85.285156 42.820312 84.34375 43.777344 85.007812 44.152344 C 85.246094 44.289062 84.929688 44.757812 85.644531 44.875 C 86.136719 44.957031 86.789062 44.65625 87.238281 44.789062 C 89.433594 45.441406 88.066406 47.378906 90.859375 47.222656 C 92.566406 47.128906 92.34375 49.023438 93.550781 49.832031 C 94.457031 50.4375 95.84375 50.179688 96.269531 51.347656 C 96.371094 51.628906 94.667969 51.886719 95.914062 52.558594 C 96.613281 52.9375 97.320312 52.855469 97.882812 53.429688 C 98.722656 54.28125 97.0625 54.496094 98.886719 54.824219 C 99.726562 54.972656 100.769531 54.484375 101.664062 54.578125 C 101.972656 54.609375 101.230469 65.410156 101.164062 66.816406 C 100.378906 83.59375 100.25 100.414062 100.050781 117.207031 C 99.949219 125.679688 99.890625 134.148438 99.835938 142.621094 C 99.808594 147.230469 99.792969 151.835938 99.792969 156.445312 C 99.792969 158.257812 99.796875 160.070312 99.804688 161.882812 C 99.8125 163.398438 100.332031 166.300781 99.71875 167.71875 C 98.824219 169.792969 95.519531 169.6875 93.578125 170.042969 C 89.734375 170.746094 85.902344 171.546875 82.074219 172.34375 C 74.378906 173.945312 66.707031 175.703125 58.96875 177.117188 C 50.898438 178.59375 42.910156 180.53125 34.847656 182.035156 C 30.882812 182.777344 26.859375 183.160156 22.863281 183.6875 C 21.03125 183.925781 19.214844 184.257812 17.394531 184.578125 C 16.960938 184.65625 16.140625 185.945312 15.453125 186.21875 C 12.230469 187.503906 9.351562 185.277344 7.007812 183.515625 C 5.648438 182.496094 4.234375 181.386719 3.421875 179.859375 C 2.636719 178.378906 3.195312 175.800781 3.1875 174.089844 C 3.140625 165.480469 3.085938 156.871094 3.042969 148.261719 C 2.953125 130.460938 2.871094 112.65625 2.777344 94.855469 C 2.734375 87.042969 3.433594 78.769531 2.578125 71 C 2.238281 67.929688 -0.0078125 63.074219 3.882812 61.484375 C 4.800781 61.109375 5.753906 60.632812 6.726562 60.429688 C 8.042969 60.152344 9.144531 60.917969 10.554688 60.769531 C 18.199219 59.980469 26.117188 56.125 33.351562 53.699219 C 41.371094 51.011719 49.382812 48.304688 57.421875 45.691406 C 61.566406 44.34375 65.710938 42.996094 69.859375 41.664062 C 71.90625 41.011719 79.460938 37.53125 80.847656 38.914062 " fill-opacity="1" fill-rule="nonzero"/><path fill="#ffffff" d="M 79.648438 40.875 C 65.121094 46.3125 50.171875 51.023438 35.789062 56.707031 C 29.367188 59.246094 22.667969 61.136719 16.183594 63.558594 C 14.726562 64.105469 13.125 64.910156 11.753906 64.832031 C 10.59375 64.769531 9.746094 64.132812 8.453125 64.390625 C 7.347656 64.613281 7.070312 65.074219 7.863281 65.984375 C 8.507812 66.722656 8.742188 65.785156 8.964844 65.910156 L 8.964844 65.515625 C 9.839844 67.332031 11.671875 68.234375 13.542969 68.699219 C 10.902344 67.832031 6.765625 66.445312 6.007812 63.347656 C 5.382812 60.792969 8.234375 62.394531 8.8125 62.285156 C 16.003906 60.933594 22.425781 58.128906 29.3125 55.847656 C 37.25 53.21875 45.175781 50.542969 53.132812 47.96875 C 60.554688 45.566406 68.222656 43.914062 75.5625 41.335938 C 76.570312 40.984375 79.980469 38.898438 79.648438 40.875 " fill-opacity="1" fill-rule="nonzero"/><path fill="#ffffff" d="M 79.847656 44.277344 C 69.542969 48.507812 58.980469 51.929688 48.398438 55.378906 C 43.355469 57.023438 38.164062 58.179688 33.121094 59.890625 C 28.765625 61.367188 22.34375 64.859375 17.703125 64.320312 C 28.835938 60.398438 40 56.566406 51.136719 52.644531 C 60.628906 49.304688 69.929688 44.875 79.648438 42.292969 C 79.527344 43.011719 79.359375 43.730469 79.847656 44.277344 " fill-opacity="1" fill-rule="nonzero"/><path fill="#ffffff" d="M 84.003906 44.667969 C 84.140625 45.082031 83.929688 45.304688 84.226562 45.667969 C 63.96875 52.074219 43.933594 59.328125 23.253906 64.320312 C 34.253906 60.636719 45.394531 57.433594 56.480469 54.023438 C 62 52.328125 67.433594 50.414062 72.851562 48.414062 C 76.445312 47.089844 80.226562 45.171875 84.003906 44.667969 " fill-opacity="1" fill-rule="nonzero"/><path fill="#ffffff" d="M 87.796875 46.648438 C 88.832031 48.835938 83.714844 49.171875 82.167969 49.535156 C 79.496094 50.171875 76.804688 50.746094 74.121094 51.328125 C 68.964844 52.449219 63.851562 53.675781 58.796875 55.191406 C 63.539062 53.679688 68.257812 52.09375 72.988281 50.542969 C 75.054688 49.863281 86.84375 45.085938 87.796875 46.648438 " fill-opacity="1" fill-rule="nonzero"/><path fill="#ffffff" d="M 92.550781 50.808594 C 92.886719 50.875 93.21875 50.941406 93.554688 51.007812 C 69.636719 56.851562 45.191406 60.351562 21.28125 66.300781 C 34.75 62.050781 48.652344 59.347656 62.199219 55.523438 C 68.246094 53.816406 74.34375 52.648438 80.4375 51.128906 C 83.496094 50.363281 86.539062 49.53125 89.605469 48.792969 C 92.246094 48.15625 90.660156 50.035156 92.550781 50.808594 " fill-opacity="1" fill-rule="nonzero"/><path fill="#ffffff" d="M 94.53125 52.203125 C 94.550781 54.289062 71.425781 56.804688 68.339844 57.171875 C 72.796875 56.511719 77.242188 55.773438 81.652344 54.855469 C 83.953125 54.378906 86.257812 53.910156 88.554688 53.386719 C 90.132812 53.023438 93.109375 51.789062 94.53125 52.203125 " fill-opacity="1" fill-rule="nonzero"/><path fill="#ffffff" d="M 96.316406 54.96875 C 84.480469 56.6875 72.898438 59.582031 61.148438 61.765625 C 50.5 63.746094 39.59375 65.074219 28.8125 66.105469 C 40.058594 63.726562 51.308594 61.40625 62.632812 59.421875 C 73.902344 57.449219 85.296875 56.128906 96.539062 53.992188 C 96.523438 54.089844 96.320312 54.960938 96.316406 54.96875 " fill-opacity="1" fill-rule="nonzero"/><path fill="#ffffff" d="M 100.285156 55.777344 C 100.910156 90.238281 98.804688 124.78125 98.722656 159.25 C 98.71875 160.703125 98.738281 162.148438 98.78125 163.601562 C 98.84375 165.648438 99.835938 167.792969 97.628906 168.203125 C 93.300781 169.015625 88.980469 169.84375 84.65625 170.683594 C 77.265625 172.125 69.894531 173.691406 62.519531 175.207031 C 47.492188 178.300781 32.363281 180.617188 17.3125 183.457031 C 16.949219 149.085938 17.449219 114.683594 17.65625 80.316406 C 17.660156 79.597656 17.410156 68.929688 17.804688 68.886719 C 22.058594 68.414062 26.308594 67.929688 30.558594 67.425781 C 37.902344 66.554688 45.234375 65.46875 52.535156 64.269531 C 68.351562 61.671875 84.347656 56.988281 100.285156 55.777344 " fill-opacity="1" fill-rule="nonzero"/><path fill="#ffffff" d="M 9.160156 68.480469 C 9.976562 68.527344 10.300781 69.039062 10.996094 69.289062 C 12.625 69.875 14.316406 69.820312 16.109375 69.898438 C 14.519531 72.96875 10.121094 70.449219 8.15625 69.289062 C 6.785156 68.476562 0.449219 63.816406 4.609375 62.335938 C 4.160156 65.171875 7.183594 67.179688 9.160156 68.480469 " fill-opacity="1" fill-rule="nonzero"/><path fill="#ffffff" d="M 13.515625 66.496094 C 13.292969 66.402344 13.105469 66.378906 12.953125 66.105469 C 14.007812 65.640625 15.058594 65.175781 16.113281 64.710938 C 16.644531 66.300781 14.582031 66.28125 13.515625 66.496094 " fill-opacity="1" fill-rule="nonzero"/><path fill="#ffffff" d="M 19.660156 66.496094 C 18.609375 66.636719 17.554688 66.773438 16.503906 66.914062 C 17.4375 66.28125 18.671875 66.542969 19.660156 66.496094 " fill-opacity="1" fill-rule="nonzero"/><path fill="#ffffff" d="M 14.519531 72.664062 C 14.988281 72.394531 15.605469 72.226562 16.113281 72.054688 C 15.910156 108.789062 15.707031 145.527344 15.507812 182.261719 C 15.496094 183.90625 16.183594 184.699219 14.179688 185.09375 C 11.210938 185.675781 8.589844 183.265625 6.480469 181.546875 C 3.230469 178.898438 4.359375 173.964844 4.328125 170.105469 C 4.289062 165.535156 4.253906 160.960938 4.21875 156.390625 C 4.085938 139.980469 3.960938 123.566406 3.84375 107.15625 C 3.785156 99.105469 3.730469 91.058594 3.679688 83.011719 C 3.648438 77.882812 4.179688 72.1875 3.214844 67.109375 C 6.179688 70.195312 10.042969 72.90625 14.519531 72.664062 " fill-opacity="1" fill-rule="nonzero"/><path fill="#ffffff" d="M 15.914062 68.285156 C 15.648438 68.488281 15.378906 68.691406 15.109375 68.894531 C 15.394531 67.988281 15.128906 68.425781 14.714844 67.5 C 14.914062 67.371094 15.109375 67.238281 15.304688 67.109375 C 15.421875 67.589844 15.773438 67.898438 15.914062 68.285156 " fill-opacity="1" fill-rule="nonzero"/><path fill="#ffffff" d="M 61.171875 85.5625 C 61.671875 85.855469 61.480469 88.164062 61.195312 89.136719 C 60.523438 87.597656 59.402344 85.964844 57.597656 85.757812 C 59.382812 85.378906 59.914062 84.363281 59.996094 82.601562 C 60.367188 83.636719 59.585938 85.757812 61.171875 85.5625 " fill-opacity="1" fill-rule="nonzero"/><path fill="#ffffff" d="M 55.808594 83.554688 C 55.464844 84.25 55.820312 84.960938 56.222656 85.5625 C 55.628906 85.3125 54.105469 84.566406 54.046875 83.847656 C 53.941406 82.59375 55.320312 83.003906 55.808594 83.554688 " fill-opacity="1" fill-rule="nonzero"/><path fill="#ffffff" d="M 86.992188 110.378906 C 87.128906 111.875 85.789062 113.132812 85.988281 114.957031 C 85.542969 114.070312 84.503906 113.15625 83.441406 113.5625 C 81.855469 114.167969 82.242188 116.863281 82.242188 118.136719 C 81.730469 116.957031 80.054688 112.601562 81.042969 111.382812 C 81.675781 110.601562 85.980469 110.410156 86.992188 110.378906 " fill-opacity="1" fill-rule="nonzero"/><path fill="#ffffff" d="M 91.148438 117.328125 C 91.160156 117.53125 91.167969 117.738281 91.175781 117.941406 C 90.796875 116.980469 90.375 116.054688 89.792969 115.199219 C 89.125 114.226562 87.542969 114.089844 87.625 113.339844 C 87.8125 111.589844 91.3125 115.753906 91.148438 117.328125 " fill-opacity="1" fill-rule="nonzero"/><path fill="#ffffff" d="M 71.894531 120.902344 C 70.578125 121.28125 69.238281 121.878906 68.148438 120.71875 C 67.523438 120.054688 65.421875 120.246094 65.25 119.898438 C 64.8125 119.03125 63.925781 116.015625 64.746094 115.152344 C 65.136719 114.742188 67.902344 114.605469 68.589844 114.417969 C 69.832031 114.078125 71.054688 113.675781 72.308594 113.367188 C 72.160156 115.882812 71.78125 118.375 71.894531 120.902344 " fill-opacity="1" fill-rule="nonzero"/><path fill="#ffffff" d="M 86.597656 116.542969 C 87.507812 118.433594 88.0625 120.421875 88.386719 122.492188 C 87.597656 120.914062 86.085938 116.507812 83.636719 117.742188 C 83.703125 116.8125 83.769531 115.882812 83.832031 114.953125 C 85.066406 115.179688 85.195312 117.742188 86.597656 116.542969 " fill-opacity="1" fill-rule="nonzero"/><path fill="#ffffff" d="M 54.808594 116.9375 C 55.476562 119.761719 52.070312 121.15625 53.242188 123.886719 C 48.183594 125.113281 50.816406 129.597656 49.277344 132.820312 C 49.242188 131.835938 48.988281 130.886719 48.933594 129.90625 C 48.871094 128.808594 49.472656 127.789062 49.472656 126.871094 C 49.46875 125.621094 48.675781 124.015625 48.640625 122.589844 C 48.601562 121.074219 48.769531 119.609375 48.296875 118.136719 C 50.449219 117.722656 52.734375 117.332031 54.808594 116.9375 " fill-opacity="1" fill-rule="nonzero"/><path fill="#ffffff" d="M 82.027344 119.902344 C 83.652344 119.171875 85.035156 123.773438 84.816406 125.285156 C 83.644531 124.398438 83.417969 122.886719 82.503906 121.808594 C 82.066406 121.292969 80.621094 121.179688 80.433594 120.902344 C 80.070312 120.363281 80.433594 118.429688 80.433594 117.746094 C 81.167969 118.351562 81.3125 119.425781 82.027344 119.902344 " fill-opacity="1" fill-rule="nonzero"/><path fill="#ffffff" d="M 79.648438 122.292969 C 79.925781 124.511719 80.832031 126.601562 81.042969 128.828125 C 79.957031 128.3125 78.382812 125.144531 76.882812 126.480469 C 75.699219 127.535156 77.816406 131.421875 77.667969 132.816406 C 75.878906 130.808594 75.28125 127.890625 75.097656 125.28125 C 78.371094 128.226562 77.496094 123.1875 77.46875 121.292969 C 77.871094 122.160156 78.734375 122.785156 79.648438 122.292969 " fill-opacity="1" fill-rule="nonzero"/><path fill="#ffffff" d="M 67.644531 123.023438 C 66.257812 122.886719 63.542969 122.84375 64.632812 125.152344 C 65.320312 126.601562 65.570312 123.265625 67.253906 124.417969 C 66.878906 125.25 66.257812 126.097656 65.378906 126.4375 C 63.238281 127.261719 63.679688 123.789062 63.679688 122.800781 C 64.339844 123.574219 66.121094 121.3125 67.644531 123.023438 " fill-opacity="1" fill-rule="nonzero"/><path fill="#ffffff" d="M 54.332031 124.78125 C 54.25 125.128906 53.996094 125.492188 53.769531 125.785156 C 52.113281 123.984375 50.707031 128.625 51.371094 129.945312 C 51.84375 130.886719 55.269531 133.1875 55.945312 132.539062 C 56.152344 132.75 56.597656 133.28125 56.730469 133.542969 C 55.40625 133.480469 54.085938 133.414062 52.765625 133.347656 C 55.222656 133.152344 51.300781 131.433594 50.855469 130.582031 C 49.609375 128.203125 51.328125 124.078125 54.332031 124.78125 " fill-opacity="1" fill-rule="nonzero"/><path fill="#ffffff" d="M 47.378906 135.917969 C 46.457031 136.347656 45.503906 136.140625 44.554688 136.417969 C 43.253906 136.800781 43.472656 137.816406 44.796875 137.738281 C 45.226562 137.714844 47.582031 136.941406 47.609375 137.480469 C 47.730469 139.917969 48.378906 140.933594 46.253906 141.996094 C 45.367188 142.441406 43.929688 143.285156 43.121094 142.84375 C 42.160156 142.316406 42.621094 140.878906 42.167969 140.589844 C 39.386719 138.816406 41.382812 142.617188 41.652344 143.257812 C 40.863281 143.550781 40.074219 143.46875 39.28125 143.222656 C 38.554688 142.996094 38.144531 141.902344 38.03125 141.863281 C 36.484375 141.363281 35.796875 144.710938 33.699219 145.046875 C 34.117188 143.949219 34.648438 142.792969 34.800781 141.621094 C 34.957031 140.394531 34.082031 139.378906 34.113281 138.488281 C 34.152344 137.46875 35.667969 135.480469 36.464844 134.914062 C 36.269531 134.71875 36.074219 134.523438 35.878906 134.324219 C 36.433594 133.898438 37.007812 133.542969 37.664062 133.347656 C 37.007812 133.882812 36.9375 135.261719 37.933594 135.527344 C 38.539062 135.6875 38.621094 134.472656 39.390625 134.414062 C 40.019531 134.363281 40.253906 133.8125 40.769531 133.59375 C 41.855469 133.128906 44.554688 131.472656 44.050781 133.984375 C 43.769531 135.394531 42.257812 137.527344 40.648438 137.117188 C 43.203125 136.878906 41.433594 134.824219 40.0625 135.722656 C 38.394531 136.8125 40.84375 137.796875 39.867188 138.707031 C 39.273438 137.679688 36.632812 135.816406 37.46875 138.09375 C 37.550781 138.320312 39.214844 139.902344 39.523438 140.003906 C 40.441406 140.308594 41.789062 139.082031 41.066406 138.289062 C 43.472656 138.371094 46.953125 133.84375 44.699219 131.941406 C 43.390625 130.832031 41.925781 131.515625 40.671875 132.261719 C 37.476562 134.175781 39.4375 132.621094 39.472656 131.339844 C 41.765625 131.203125 42.523438 128.8125 44.371094 127.890625 C 45.265625 127.441406 46.277344 127.683594 47.207031 127.570312 C 47.273438 130.332031 47.460938 133.199219 47.378906 135.917969 " fill-opacity="1" fill-rule="nonzero"/><path fill="#ffffff" d="M 69.039062 131.730469 C 67.882812 133.21875 65.300781 132.910156 63.289062 133.148438 C 63.765625 132.902344 64.011719 132.085938 64.339844 131.925781 C 64.828125 131.691406 64.960938 132 65.636719 131.851562 C 66.640625 131.632812 68.507812 131.066406 69.039062 131.730469 " fill-opacity="1" fill-rule="nonzero"/><path fill="#ffffff" d="M 87.382812 139.746094 C 85.445312 140.539062 83.316406 140.835938 81.238281 140.96875 C 81.378906 138.910156 80.542969 135.433594 82.832031 134.214844 C 84.230469 133.46875 86.101562 134.140625 87.578125 133.234375 C 87.78125 135.390625 87.273438 137.660156 87.382812 139.746094 " fill-opacity="1" fill-rule="nonzero"/><path fill="#ffffff" d="M 77.863281 141.53125 C 77.199219 141.605469 76.539062 141.679688 75.878906 141.753906 C 77.265625 140.226562 78.652344 138.703125 80.039062 137.175781 C 79.941406 138.667969 80.671875 142.609375 77.863281 141.53125 " fill-opacity="1" fill-rule="nonzero"/><path fill="#000000" d="M 38.140625 140.746094 C 37.273438 141.074219 34.386719 140.75 36.15625 139.988281 C 36.820312 139.707031 38.101562 140.222656 38.140625 140.746094 " fill-opacity="1" fill-rule="nonzero"/><path fill="#ffffff" d="M 87.1875 147.507812 C 85.179688 147.976562 83.09375 148.128906 81.042969 148.3125 C 81.042969 146.128906 79.894531 142.417969 82.425781 142.195312 C 84.027344 142.054688 85.867188 141.253906 87.382812 141.363281 C 87.320312 143.386719 87.253906 145.570312 87.1875 147.507812 " fill-opacity="1" fill-rule="nonzero"/><path fill="#ffffff" d="M 40.316406 147.085938 C 39.898438 147.082031 39.558594 147.03125 39.582031 147.671875 C 39.628906 148.890625 42.191406 148.414062 42.664062 148.386719 C 44.570312 148.269531 44.132812 150.050781 44.515625 151.746094 C 44.832031 153.144531 45.371094 154.804688 45.261719 155.96875 C 45.152344 157.167969 45.96875 157.121094 44.164062 157.59375 C 42.558594 158.011719 40.835938 158.023438 39.1875 158.023438 C 35.785156 158.023438 32.316406 157.402344 29.011719 156.628906 C 30.007812 154.3125 31 151.996094 31.996094 149.679688 C 33.777344 152.480469 37.335938 148.71875 34.394531 146.523438 C 35.628906 146.296875 35.996094 145.332031 36.964844 144.734375 C 38.542969 143.765625 38.253906 144.484375 39.753906 144.734375 C 42.542969 145.203125 46.058594 144.167969 48.296875 142.53125 C 46.226562 144.734375 43.8125 148.285156 40.316406 147.085938 " fill-opacity="1" fill-rule="nonzero"/><path fill="#ffffff" d="M 79.847656 148.480469 C 77.796875 148.882812 75.75 149.28125 73.703125 149.679688 C 73.703125 147.484375 72.804688 144.464844 74.828125 143.390625 C 76.246094 142.636719 78.3125 143.046875 79.847656 142.535156 L 79.847656 148.480469 " fill-opacity="1" fill-rule="nonzero"/><path fill="#ffffff" d="M 57.121094 145.242188 C 55.9375 147.449219 53.394531 148.261719 57.730469 148.621094 C 57.355469 150.175781 57.839844 151.914062 56.140625 152.804688 C 55.554688 153.109375 53.964844 153.097656 53.203125 153.34375 C 52.175781 153.671875 51.265625 154.09375 50.167969 154.199219 L 50.167969 149.933594 C 50.167969 148.144531 49.8125 147.148438 50.902344 146.390625 C 52.144531 145.535156 55.632812 145.058594 57.121094 145.242188 " fill-opacity="1" fill-rule="nonzero"/><path fill="#ffffff" d="M 66.75 150.878906 C 66.691406 149.253906 71.007812 146.488281 72.304688 145.324219 C 72.304688 145.917969 72.550781 149.832031 72.175781 149.898438 C 70.367188 150.226562 68.558594 150.554688 66.75 150.878906 " fill-opacity="1" fill-rule="nonzero"/><path fill="#ffffff" d="M 48.773438 155.960938 C 48.226562 155.5 47.804688 155.957031 47.0625 156.253906 C 45.9375 156.703125 45.984375 154.355469 45.789062 153.550781 C 45.34375 151.707031 45.546875 148.53125 44.808594 147.445312 C 46.042969 146.867188 47.472656 146.867188 48.800781 146.636719 C 48.800781 149.730469 48.90625 152.917969 48.773438 155.960938 " fill-opacity="1" fill-rule="nonzero"/><path fill="#ffffff" d="M 80.847656 156.4375 C 80.886719 155.164062 80.25 150.554688 81.042969 149.683594 C 82.183594 148.429688 85.796875 149.828125 87.1875 148.507812 L 87.1875 155.550781 C 87.1875 155.878906 81.570312 156.347656 80.847656 156.4375 " fill-opacity="1" fill-rule="nonzero"/><path fill="#ffffff" d="M 79.648438 156.636719 C 77.597656 157.050781 75.542969 157.453125 73.480469 157.835938 C 73.480469 156.035156 72.507812 151.28125 74.425781 150.894531 C 76.179688 150.542969 77.871094 149.9375 79.648438 149.683594 L 79.648438 156.636719 " fill-opacity="1" fill-rule="nonzero"/><path fill="#ffffff" d="M 72.082031 151.273438 C 72.082031 152.457031 72.816406 157.410156 72.082031 158.222656 C 71.597656 158.761719 67.238281 159.078125 66.332031 159.226562 C 66.277344 158.078125 65.894531 152.832031 66.550781 152.078125 C 67.167969 151.375 71.027344 151.636719 72.082031 151.273438 " fill-opacity="1" fill-rule="nonzero"/><path fill="#ffffff" d="M 64.882812 159.144531 C 63.152344 159.5 61.511719 160.175781 59.71875 159.953125 C 59.972656 157.355469 60.898438 152.191406 64.660156 152.195312 C 64.734375 154.511719 64.808594 156.828125 64.882812 159.144531 " fill-opacity="1" fill-rule="nonzero"/><path fill="#ffffff" d="M 54.941406 154.371094 C 53.894531 155.835938 52.824219 158.851562 51.371094 159.535156 C 52.082031 159.871094 51.777344 160.703125 51.566406 161.542969 C 50.921875 160.613281 49.632812 159.742188 50.976562 158.753906 C 49.976562 157.976562 50.5625 156.65625 50.171875 155.570312 C 51.796875 155.355469 53.371094 154.386719 54.941406 154.371094 " fill-opacity="1" fill-rule="nonzero"/><path fill="#ffffff" d="M 48.382812 158.949219 C 47.347656 159.164062 46.566406 158.867188 46.855469 157.8125 C 47.039062 157.136719 48.53125 157.203125 48.996094 156.550781 C 49.050781 157.410156 49.21875 158.480469 48.382812 158.949219 " fill-opacity="1" fill-rule="nonzero"/><path fill="#ffffff" d="M 87.1875 162.582031 C 85.074219 162.914062 82.960938 163.25 80.847656 163.585938 L 80.847656 157.96875 C 80.847656 157.597656 83.703125 157.339844 84.152344 157.296875 C 84.527344 157.257812 87.1875 156.953125 87.1875 157.371094 L 87.1875 162.582031 " fill-opacity="1" fill-rule="nonzero"/><path fill="#ffffff" d="M 55.921875 157.554688 C 56.4375 159.136719 54.8125 161.925781 53.496094 161.371094 C 53.882812 160.402344 55.316406 157.640625 55.921875 157.554688 " fill-opacity="1" fill-rule="nonzero"/><path fill="#ffffff" d="M 79.648438 163.78125 C 77.527344 164.179688 75.40625 164.578125 73.285156 164.980469 C 73.277344 164.261719 73.460938 163.738281 73.898438 163.390625 C 72.878906 162.640625 74.578125 161.332031 73.480469 161.210938 C 73.480469 158.8125 73.554688 159.152344 75.699219 158.8125 C 77.023438 158.601562 78.335938 158.289062 79.648438 158.027344 C 79.648438 159.945312 79.648438 161.863281 79.648438 163.78125 " fill-opacity="1" fill-rule="nonzero"/><path fill="#ffffff" d="M 35.484375 158.753906 C 35.738281 160.320312 33.125 160.546875 32.058594 161.199219 C 29.652344 162.679688 28.675781 164.097656 28.925781 166.902344 C 27.542969 166.90625 26.117188 166.742188 24.765625 167.097656 L 24.765625 162.035156 C 24.765625 160.019531 24.484375 160.132812 26.28125 159.832031 C 27.234375 159.671875 30.871094 158.457031 30.75 159.792969 C 30.617188 161.234375 32.109375 162.199219 32.109375 160.527344 C 32.109375 157.917969 32.59375 158.371094 35.484375 158.753906 " fill-opacity="1" fill-rule="nonzero"/><path fill="#ffffff" d="M 72.308594 164.894531 C 70.398438 165.222656 68.488281 165.570312 66.554688 165.703125 L 66.554688 165.089844 C 66.96875 165.128906 67.054688 164.992188 67.339844 164.894531 C 66.339844 164.519531 65.789062 161.1875 66.554688 160.316406 C 67.132812 159.667969 71 159.199219 72.085938 159.144531 C 72.164062 161.058594 71.9375 163 72.308594 164.894531 " fill-opacity="1" fill-rule="nonzero"/><path fill="#ffffff" d="M 40.84375 163.5 C 41.777344 163.617188 44.726562 164.59375 44.515625 162.984375 C 44.289062 161.253906 40.191406 162.273438 41.308594 160.390625 C 42.425781 158.511719 47.902344 160.058594 49.265625 161.175781 C 51.753906 163.210938 49.789062 164.761719 47.980469 166.324219 C 44.832031 169.050781 34.820312 170.425781 31.347656 167.78125 C 27.949219 165.195312 32.3125 161.714844 35.09375 161.347656 C 35.253906 163.042969 34.792969 165.1875 37.492188 165.019531 C 40.210938 164.84375 39.820312 162.023438 36.878906 162.324219 C 37.476562 161.394531 38.070312 160.464844 38.667969 159.535156 C 40.125 160.511719 38.902344 163.027344 40.84375 163.5 " fill-opacity="1" fill-rule="nonzero"/><path fill="#ffffff" d="M 64.9375 166.09375 C 63.183594 166.132812 61.550781 166.882812 59.796875 166.902344 C 59.792969 166.640625 60.101562 165.167969 60.089844 165.152344 C 59.667969 164.570312 59.660156 163.425781 59.796875 162.742188 C 60.085938 161.320312 59.949219 161.570312 61.523438 161.273438 C 62.667969 161.054688 63.808594 160.824219 64.9375 160.539062 L 64.9375 166.09375 " fill-opacity="1" fill-rule="nonzero"/><path fill="#ffffff" d="M 50.367188 167.855469 C 49.925781 169.359375 43.882812 169.582031 42.242188 170.253906 L 42.242188 169.863281 C 44.175781 169.328125 46.09375 168.691406 47.882812 167.769531 C 49.464844 166.949219 49.519531 166.539062 50.367188 167.855469 " fill-opacity="1" fill-rule="nonzero"/><path fill="#ffffff" d="M 31.128906 169.25 C 31.140625 169.917969 30.746094 172.0625 31.519531 172.457031 C 32.9375 173.175781 32.511719 170.433594 32.523438 169.863281 C 35.152344 170.746094 38.199219 170.351562 40.871094 169.863281 C 39.039062 171.246094 36.660156 171.324219 34.507812 171.84375 C 31.191406 172.640625 27.9375 173.46875 24.570312 174.046875 C 24.644531 172.386719 24.625 170.671875 25.207031 169.445312 C 25.503906 168.8125 25.464844 169.085938 25.378906 168.492188 C 27.296875 167.605469 29.574219 168.027344 31.128906 169.25 " fill-opacity="1" fill-rule="nonzero"/><path fill="#ffffff" d="M 34.089844 138.488281 C 34.648438 137.277344 35.160156 135.628906 36.367188 134.964844 C 36.203125 134.753906 36.039062 134.539062 35.875 134.328125 C 36.398438 133.765625 36.964844 133.394531 37.664062 133.351562 C 37.101562 133.765625 37.148438 134.578125 37.222656 135.113281 C 37.128906 135.027344 37.324219 135.035156 37.296875 134.988281 C 38.148438 136.074219 40.359375 133.316406 41.703125 132.8125 C 46.15625 131.132812 43.40625 137.804688 40.648438 137.117188 C 43.125 136.492188 41.148438 134.816406 39.9375 135.773438 C 38.703125 136.753906 40.25 137.347656 40.160156 137.902344 C 40.003906 138.871094 40.023438 138.71875 39.035156 137.730469 C 38.21875 136.917969 36.609375 136.714844 37.46875 138.097656 C 38.496094 138.554688 39.15625 140.566406 40.453125 139.761719 C 40.503906 140.335938 40.335938 141.042969 40.527344 141.574219 C 40.695312 142.03125 41.605469 142.257812 41.578125 142.820312 C 41.5 144.476562 38.78125 142.921875 38.078125 142.550781 C 37.328125 142.15625 38.640625 141.066406 37.027344 141.941406 C 36.617188 142.164062 36.324219 143.207031 36.023438 143.578125 C 35.410156 144.335938 34.792969 145.078125 33.699219 145.046875 C 34.507812 142.976562 35.59375 140.484375 34.089844 138.488281 " fill-opacity="1" fill-rule="nonzero"/><g fill="#ffffff" fill-opacity="1"><g transform="translate(109.089927, 106.666676)"><g><path d="M 36.640625 -37.328125 L 36.640625 -15.46875 C 36.640625 -10.59375 35.195312 -6.75 32.3125 -3.9375 C 29.4375 -1.132812 25.472656 0.265625 20.421875 0.265625 C 15.378906 0.265625 11.40625 -1.132812 8.5 -3.9375 C 5.601562 -6.75 4.15625 -10.59375 4.15625 -15.46875 L 4.15625 -37.328125 L 10.453125 -37.328125 L 10.453125 -15.46875 C 10.453125 -12.332031 11.347656 -9.867188 13.140625 -8.078125 C 14.941406 -6.285156 17.390625 -5.390625 20.484375 -5.390625 C 23.535156 -5.390625 25.941406 -6.273438 27.703125 -8.046875 C 29.460938 -9.828125 30.34375 -12.300781 30.34375 -15.46875 L 30.34375 -37.328125 Z M 36.640625 -37.328125 "/></g></g></g><g fill="#ffffff" fill-opacity="1"><g transform="translate(149.836526, 106.666676)"><g><path d="M 21.125 -28.578125 C 24.425781 -28.578125 27.007812 -27.609375 28.875 -25.671875 C 30.738281 -23.734375 31.671875 -21.0625 31.671875 -17.65625 L 31.671875 0 L 25.546875 0 L 25.546875 -15.9375 C 25.546875 -18.070312 24.941406 -19.753906 23.734375 -20.984375 C 22.523438 -22.210938 20.851562 -22.828125 18.71875 -22.828125 C 16.445312 -22.785156 14.585938 -22.050781 13.140625 -20.625 C 11.703125 -19.207031 10.878906 -17.363281 10.671875 -15.09375 L 10.671875 0 L 4.53125 0 L 4.53125 -28.375 L 10.671875 -28.375 L 10.671875 -22.9375 C 12.585938 -26.695312 16.070312 -28.578125 21.125 -28.578125 Z M 21.125 -28.578125 "/></g></g></g><g fill="#ffffff" fill-opacity="1"><g transform="translate(185.196468, 106.666676)"><g><path d="M 5.015625 -39.15625 C 5.691406 -39.851562 6.546875 -40.203125 7.578125 -40.203125 C 8.609375 -40.203125 9.457031 -39.851562 10.125 -39.15625 C 10.800781 -38.46875 11.140625 -37.570312 11.140625 -36.46875 C 11.140625 -35.40625 10.800781 -34.523438 10.125 -33.828125 C 9.457031 -33.140625 8.609375 -32.796875 7.578125 -32.796875 C 6.546875 -32.796875 5.691406 -33.140625 5.015625 -33.828125 C 4.335938 -34.523438 4 -35.40625 4 -36.46875 C 4 -37.570312 4.335938 -38.46875 5.015625 -39.15625 Z M 10.609375 0 L 4.53125 0 L 4.53125 -28.375 L 10.609375 -28.375 Z M 10.609375 0 "/></g></g></g><g fill="#ffffff" fill-opacity="1"><g transform="translate(200.343104, 106.666676)"><g><path d="M 17.390625 0 L 11.03125 0 L 0.046875 -28.375 L 6.453125 -28.375 L 14.34375 -6.03125 L 22.125 -28.375 L 28.265625 -28.375 Z M 17.390625 0 "/></g></g></g><g fill="#ffffff" fill-opacity="1"><g transform="translate(228.343058, 106.666676)"><g><path d="M 16.21875 -28.578125 C 21.082031 -28.578125 24.609375 -27.109375 26.796875 -24.171875 C 28.984375 -21.242188 29.878906 -17.132812 29.484375 -11.84375 L 8.046875 -11.84375 C 8.546875 -9.632812 9.578125 -7.898438 11.140625 -6.640625 C 12.703125 -5.378906 14.609375 -4.75 16.859375 -4.75 C 20.054688 -4.75 22.71875 -5.847656 24.84375 -8.046875 L 28.109375 -4.59375 C 25.191406 -1.382812 21.28125 0.21875 16.375 0.21875 C 12 0.21875 8.484375 -1.101562 5.828125 -3.75 C 3.179688 -6.40625 1.859375 -9.863281 1.859375 -14.125 C 1.859375 -18.394531 3.191406 -21.863281 5.859375 -24.53125 C 8.523438 -27.195312 11.976562 -28.546875 16.21875 -28.578125 Z M 7.953125 -16.3125 L 24.15625 -16.3125 C 24.050781 -18.59375 23.285156 -20.390625 21.859375 -21.703125 C 20.441406 -23.015625 18.578125 -23.671875 16.265625 -23.671875 C 14.023438 -23.671875 12.164062 -23.015625 10.6875 -21.703125 C 9.21875 -20.390625 8.304688 -18.59375 7.953125 -16.3125 Z M 7.953125 -16.3125 "/></g></g></g><g fill="#ffffff" fill-opacity="1"><g transform="translate(259.70301, 106.666676)"><g><path d="M 10.671875 -28.375 L 10.671875 -22.71875 C 12.617188 -26.625 15.890625 -28.578125 20.484375 -28.578125 L 20.484375 -22.71875 C 17.671875 -22.863281 15.390625 -22.207031 13.640625 -20.75 C 11.898438 -19.289062 10.910156 -17.316406 10.671875 -14.828125 L 10.671875 0 L 4.53125 0 L 4.53125 -28.375 Z M 10.671875 -28.375 "/></g></g></g><g fill="#ffffff" fill-opacity="1"><g transform="translate(280.716308, 106.666676)"><g><path d="M 13.015625 -28.640625 C 16.921875 -28.640625 20.226562 -27.675781 22.9375 -25.75 L 20.6875 -21.21875 C 17.988281 -22.894531 15.269531 -23.734375 12.53125 -23.734375 C 9.757812 -23.734375 8.375 -22.789062 8.375 -20.90625 C 8.375 -19.976562 8.890625 -19.210938 9.921875 -18.609375 C 10.953125 -18.003906 12.203125 -17.5 13.671875 -17.09375 C 15.148438 -16.6875 16.625 -16.207031 18.09375 -15.65625 C 19.570312 -15.101562 20.828125 -14.203125 21.859375 -12.953125 C 22.890625 -11.710938 23.40625 -10.132812 23.40625 -8.21875 C 23.40625 -5.476562 22.363281 -3.382812 20.28125 -1.9375 C 18.207031 -0.5 15.625 0.21875 12.53125 0.21875 C 10.394531 0.21875 8.304688 -0.125 6.265625 -0.8125 C 4.222656 -1.507812 2.507812 -2.484375 1.125 -3.734375 L 3.3125 -8.109375 C 4.519531 -7.035156 6.003906 -6.179688 7.765625 -5.546875 C 9.523438 -4.910156 11.203125 -4.59375 12.796875 -4.59375 C 14.179688 -4.59375 15.300781 -4.835938 16.15625 -5.328125 C 17.007812 -5.828125 17.4375 -6.59375 17.4375 -7.625 C 17.4375 -8.6875 16.921875 -9.535156 15.890625 -10.171875 C 14.859375 -10.816406 13.613281 -11.332031 12.15625 -11.71875 C 10.695312 -12.113281 9.238281 -12.578125 7.78125 -13.109375 C 6.320312 -13.648438 5.085938 -14.53125 4.078125 -15.75 C 3.066406 -16.976562 2.5625 -18.535156 2.5625 -20.421875 C 2.5625 -23.128906 3.5625 -25.175781 5.5625 -26.5625 C 7.570312 -27.945312 10.054688 -28.640625 13.015625 -28.640625 Z M 13.015625 -28.640625 "/></g></g></g><g fill="#ffffff" fill-opacity="1"><g transform="translate(305.782937, 106.666676)"><g><path d="M 16.6875 -28.578125 C 21.0625 -28.578125 24.617188 -27.253906 27.359375 -24.609375 C 30.097656 -21.960938 31.46875 -18.488281 31.46875 -14.1875 C 31.46875 -9.914062 30.097656 -6.445312 27.359375 -3.78125 C 24.617188 -1.113281 21.0625 0.21875 16.6875 0.21875 C 12.28125 0.21875 8.707031 -1.113281 5.96875 -3.78125 C 3.226562 -6.445312 1.859375 -9.914062 1.859375 -14.1875 C 1.859375 -18.488281 3.226562 -21.960938 5.96875 -24.609375 C 8.707031 -27.253906 12.28125 -28.578125 16.6875 -28.578125 Z M 16.6875 -23.296875 C 14.132812 -23.296875 12.046875 -22.441406 10.421875 -20.734375 C 8.804688 -19.035156 8 -16.832031 8 -14.125 C 8 -11.394531 8.804688 -9.175781 10.421875 -7.46875 C 12.046875 -5.757812 14.132812 -4.90625 16.6875 -4.90625 C 19.25 -4.90625 21.328125 -5.757812 22.921875 -7.46875 C 24.523438 -9.175781 25.328125 -11.394531 25.328125 -14.125 C 25.328125 -16.832031 24.519531 -19.035156 22.90625 -20.734375 C 21.289062 -22.441406 19.21875 -23.296875 16.6875 -23.296875 Z M 16.6875 -23.296875 "/></g></g></g><g fill="#ffffff" fill-opacity="1"><g transform="translate(109.089927, 144.765488)"><g><path d="M 7.46875 -3.8125 L 18.25 -3.8125 L 18.25 0 L 3.265625 0 L 3.265625 -24.90625 L 7.46875 -24.90625 Z M 7.46875 -3.8125 "/></g></g></g><g fill="#ffffff" fill-opacity="1"><g transform="translate(128.085821, 144.765488)"><g><path d="M 3.34375 -26.125 C 3.789062 -26.59375 4.359375 -26.828125 5.046875 -26.828125 C 5.734375 -26.828125 6.300781 -26.59375 6.75 -26.125 C 7.207031 -25.664062 7.4375 -25.066406 7.4375 -24.328125 C 7.4375 -23.617188 7.207031 -23.03125 6.75 -22.5625 C 6.300781 -22.101562 5.734375 -21.875 5.046875 -21.875 C 4.359375 -21.875 3.789062 -22.101562 3.34375 -22.5625 C 2.894531 -23.03125 2.671875 -23.617188 2.671875 -24.328125 C 2.671875 -25.066406 2.894531 -25.664062 3.34375 -26.125 Z M 7.078125 0 L 3.03125 0 L 3.03125 -18.921875 L 7.078125 -18.921875 Z M 7.078125 0 "/></g></g></g><g fill="#ffffff" fill-opacity="1"><g transform="translate(138.188513, 144.765488)"><g><path d="M 12.703125 -4.34375 L 13.734375 -1.203125 C 12.171875 -0.285156 10.617188 0.171875 9.078125 0.171875 C 7.535156 0.171875 6.265625 -0.285156 5.265625 -1.203125 C 4.265625 -2.128906 3.765625 -3.507812 3.765625 -5.34375 L 3.765625 -15.15625 L 1.109375 -15.15625 L 1.109375 -18.21875 L 3.765625 -18.21875 L 3.765625 -23.40625 L 7.828125 -23.40625 L 7.828125 -18.21875 L 13.40625 -18.21875 L 13.40625 -15.15625 L 7.828125 -15.15625 L 7.828125 -6.078125 C 7.828125 -5.128906 7.992188 -4.460938 8.328125 -4.078125 C 8.660156 -3.703125 9.171875 -3.515625 9.859375 -3.515625 C 10.617188 -3.515625 11.566406 -3.789062 12.703125 -4.34375 Z M 12.703125 -4.34375 "/></g></g></g><g fill="#ffffff" fill-opacity="1"><g transform="translate(152.666662, 144.765488)"><g><path d="M 10.8125 -19.0625 C 14.0625 -19.0625 16.414062 -18.082031 17.875 -16.125 C 19.332031 -14.175781 19.929688 -11.429688 19.671875 -7.890625 L 5.375 -7.890625 C 5.707031 -6.421875 6.394531 -5.265625 7.4375 -4.421875 C 8.476562 -3.585938 9.75 -3.171875 11.25 -3.171875 C 13.375 -3.171875 15.148438 -3.90625 16.578125 -5.375 L 18.75 -3.0625 C 16.800781 -0.925781 14.191406 0.140625 10.921875 0.140625 C 8.003906 0.140625 5.660156 -0.738281 3.890625 -2.5 C 2.128906 -4.269531 1.25 -6.578125 1.25 -9.421875 C 1.25 -12.273438 2.132812 -14.585938 3.90625 -16.359375 C 5.6875 -18.140625 7.988281 -19.039062 10.8125 -19.0625 Z M 5.296875 -10.890625 L 16.109375 -10.890625 C 16.046875 -12.398438 15.535156 -13.59375 14.578125 -14.46875 C 13.628906 -15.351562 12.382812 -15.796875 10.84375 -15.796875 C 9.351562 -15.796875 8.113281 -15.351562 7.125 -14.46875 C 6.144531 -13.59375 5.535156 -12.398438 5.296875 -10.890625 Z M 5.296875 -10.890625 "/></g></g></g><g fill="#ffffff" fill-opacity="1"><g transform="translate(173.583498, 144.765488)"><g><path d="M 7.109375 -18.921875 L 7.109375 -15.15625 C 8.421875 -17.757812 10.601562 -19.0625 13.65625 -19.0625 L 13.65625 -15.15625 C 11.78125 -15.25 10.257812 -14.804688 9.09375 -13.828125 C 7.9375 -12.859375 7.273438 -11.546875 7.109375 -9.890625 L 7.109375 0 L 3.03125 0 L 3.03125 -18.921875 Z M 7.109375 -18.921875 "/></g></g></g><g fill="#ffffff" fill-opacity="1"><g transform="translate(187.599204, 144.765488)"><g><path d="M 11.5625 -21.625 L 7.9375 -21.625 L 11.703125 -26.890625 L 15.90625 -25.125 Z M 14.375 0 L 14.375 -2.3125 C 13.019531 -0.65625 10.929688 0.171875 8.109375 0.171875 C 6.097656 0.171875 4.484375 -0.375 3.265625 -1.46875 C 2.054688 -2.570312 1.453125 -3.976562 1.453125 -5.6875 C 1.453125 -7.425781 2.082031 -8.800781 3.34375 -9.8125 C 4.601562 -10.832031 6.359375 -11.359375 8.609375 -11.390625 L 14.34375 -11.390625 L 14.34375 -11.953125 C 14.34375 -13.160156 13.957031 -14.097656 13.1875 -14.765625 C 12.414062 -15.429688 11.289062 -15.765625 9.8125 -15.765625 C 7.988281 -15.765625 6.128906 -15.125 4.234375 -13.84375 L 2.5625 -16.6875 C 4.007812 -17.539062 5.304688 -18.148438 6.453125 -18.515625 C 7.609375 -18.878906 9.023438 -19.0625 10.703125 -19.0625 C 13.128906 -19.0625 15.003906 -18.472656 16.328125 -17.296875 C 17.660156 -16.128906 18.335938 -14.503906 18.359375 -12.421875 L 18.390625 0 Z M 8.96875 -3.0625 C 10.414062 -3.0625 11.640625 -3.398438 12.640625 -4.078125 C 13.648438 -4.753906 14.21875 -5.613281 14.34375 -6.65625 L 14.34375 -8.390625 L 9.21875 -8.390625 C 7.863281 -8.390625 6.867188 -8.191406 6.234375 -7.796875 C 5.609375 -7.410156 5.296875 -6.769531 5.296875 -5.875 C 5.296875 -5.019531 5.625 -4.335938 6.28125 -3.828125 C 6.9375 -3.316406 7.832031 -3.0625 8.96875 -3.0625 Z M 8.96875 -3.0625 "/></g></g></g><g fill="#ffffff" fill-opacity="1"><g transform="translate(208.444897, 144.765488)"><g><path d="M 7.109375 -18.921875 L 7.109375 -15.15625 C 8.421875 -17.757812 10.601562 -19.0625 13.65625 -19.0625 L 13.65625 -15.15625 C 11.78125 -15.25 10.257812 -14.804688 9.09375 -13.828125 C 7.9375 -12.859375 7.273438 -11.546875 7.109375 -9.890625 L 7.109375 0 L 3.03125 0 L 3.03125 -18.921875 Z M 7.109375 -18.921875 "/></g></g></g><g fill="#ffffff" fill-opacity="1"><g transform="translate(222.460604, 144.765488)"><g><path d="M 3.34375 -26.125 C 3.789062 -26.59375 4.359375 -26.828125 5.046875 -26.828125 C 5.734375 -26.828125 6.300781 -26.59375 6.75 -26.125 C 7.207031 -25.664062 7.4375 -25.066406 7.4375 -24.328125 C 7.4375 -23.617188 7.207031 -23.03125 6.75 -22.5625 C 6.300781 -22.101562 5.734375 -21.875 5.046875 -21.875 C 4.359375 -21.875 3.789062 -22.101562 3.34375 -22.5625 C 2.894531 -23.03125 2.671875 -23.617188 2.671875 -24.328125 C 2.671875 -25.066406 2.894531 -25.664062 3.34375 -26.125 Z M 7.078125 0 L 3.03125 0 L 3.03125 -18.921875 L 7.078125 -18.921875 Z M 7.078125 0 "/></g></g></g><g fill="#ffffff" fill-opacity="1"><g transform="translate(232.563295, 144.765488)"><g><path d="M 11.140625 -19.0625 C 14.054688 -19.0625 16.425781 -18.175781 18.25 -16.40625 C 20.070312 -14.644531 20.984375 -12.332031 20.984375 -9.46875 C 20.984375 -6.613281 20.070312 -4.296875 18.25 -2.515625 C 16.425781 -0.742188 14.054688 0.140625 11.140625 0.140625 C 8.191406 0.140625 5.804688 -0.742188 3.984375 -2.515625 C 2.160156 -4.296875 1.25 -6.613281 1.25 -9.46875 C 1.25 -12.332031 2.160156 -14.644531 3.984375 -16.40625 C 5.804688 -18.175781 8.191406 -19.0625 11.140625 -19.0625 Z M 11.140625 -15.546875 C 9.429688 -15.546875 8.035156 -14.972656 6.953125 -13.828125 C 5.878906 -12.691406 5.34375 -11.222656 5.34375 -9.421875 C 5.34375 -7.597656 5.878906 -6.113281 6.953125 -4.96875 C 8.035156 -3.832031 9.429688 -3.265625 11.140625 -3.265625 C 12.847656 -3.265625 14.234375 -3.832031 15.296875 -4.96875 C 16.367188 -6.113281 16.90625 -7.597656 16.90625 -9.421875 C 16.90625 -11.222656 16.363281 -12.691406 15.28125 -13.828125 C 14.195312 -14.972656 12.816406 -15.546875 11.140625 -15.546875 Z M 11.140625 -15.546875 "/></g></g></g></svg>