<svg width="33" height="31" viewBox="0 0 33 31" fill="none" xmlns="http://www.w3.org/2000/svg">
<path id="Vector (Stroke)" d="M0 1.10714C0 0.495685 0.492487 0 1.1 0H4.4C4.90475 0 5.34473 0.345758 5.46715 0.838621L6.35885 4.42857H31.9C32.2387 4.42857 32.5586 4.58564 32.767 4.85436C32.9755 5.12309 33.0493 5.47349 32.9671 5.80424L29.6671 19.09C29.5447 19.5828 29.1047 19.9286 28.6 19.9286H8.8C8.29524 19.9286 7.85526 19.5828 7.73284 19.09L3.54114 2.21429H1.1C0.492487 2.21429 0 1.7186 0 1.10714ZM6.90885 6.64286L8.00885 11.0714H11V6.64286H6.90885ZM13.2 6.64286V11.0714H17.6V6.64286H13.2ZM19.8 6.64286V11.0714H24.2V6.64286H19.8ZM26.4 6.64286V11.0714H29.3911L30.4911 6.64286H26.4ZM28.8411 13.2857H26.4V17.7143H27.7411L28.8411 13.2857ZM24.2 13.2857H19.8V17.7143H24.2V13.2857ZM17.6 13.2857H13.2V17.7143H17.6V13.2857ZM11 13.2857H8.55885L9.65885 17.7143H11V13.2857ZM11 24.3571C9.78497 24.3571 8.8 25.3485 8.8 26.5714C8.8 27.7943 9.78497 28.7857 11 28.7857C12.215 28.7857 13.2 27.7943 13.2 26.5714C13.2 25.3485 12.215 24.3571 11 24.3571ZM6.6 26.5714C6.6 24.1256 8.56994 22.1429 11 22.1429C13.43 22.1429 15.4 24.1256 15.4 26.5714C15.4 29.0173 13.43 31 11 31C8.56994 31 6.6 29.0173 6.6 26.5714ZM26.4 24.3571C25.185 24.3571 24.2 25.3485 24.2 26.5714C24.2 27.7943 25.185 28.7857 26.4 28.7857C27.615 28.7857 28.6 27.7943 28.6 26.5714C28.6 25.3485 27.615 24.3571 26.4 24.3571ZM22 26.5714C22 24.1256 23.9699 22.1429 26.4 22.1429C28.83 22.1429 30.8 24.1256 30.8 26.5714C30.8 29.0173 28.83 31 26.4 31C23.9699 31 22 29.0173 22 26.5714Z" fill="black"/>
</svg>
